<?xml version="1.0" standalone="no"?>
<!DOCTYPE svg PUBLIC "-//W3C//DTD SVG 20010904//EN"
 "http://www.w3.org/TR/2001/REC-SVG-20010904/DTD/svg10.dtd">
<svg version="1.0" xmlns="http://www.w3.org/2000/svg"
 width="312.000000pt" height="312.000000pt" viewBox="0 0 312.000000 312.000000"
 preserveAspectRatio="xMidYMid meet">
<metadata>
Created by potrace 1.14, written by Peter Selinger 2001-2017
</metadata>
<g transform="translate(0.000000,312.000000) scale(0.100000,-0.100000)"
fill="#000000" stroke="none">
<path d="M893 2328 c-10 -18 -22 -41 -28 -50 -5 -9 -17 -29 -26 -45 -75 -136
-445 -784 -460 -805 -11 -15 -19 -29 -19 -32 0 -2 -59 -106 -130 -231 -72
-125 -130 -229 -130 -230 0 -2 -22 -41 -50 -87 l-50 -83 276 -3 c251 -2 278
-1 289 15 7 9 50 83 96 165 46 81 88 147 92 145 5 -1 50 -74 100 -162 l92
-160 280 -3 c258 -2 281 -1 291 15 6 10 22 38 36 63 14 25 60 106 103 180 93
162 341 593 365 635 46 82 261 455 326 567 41 69 74 129 74 132 0 4 -127 5
-281 4 l-281 -3 -234 -410 c-129 -225 -234 -411 -234 -413 0 -1 -10 -19 -23
-40 -13 -20 -39 -64 -57 -97 -18 -33 -45 -82 -60 -108 l-27 -49 -61 104 c-33
57 -72 126 -87 153 -16 28 -33 57 -38 66 -8 13 13 56 93 195 56 99 111 194
122 213 11 19 64 112 119 207 54 95 99 176 99 179 0 3 -126 5 -280 5 l-279 0
-18 -32z"/>
<path d="M2380 1589 c-69 -114 -131 -218 -139 -231 -13 -22 -9 -32 55 -143 37
-66 72 -121 76 -123 4 -2 8 -8 8 -13 0 -5 41 -79 91 -164 l91 -155 280 0 280
0 -20 33 c-23 37 -255 435 -392 672 -51 88 -100 171 -110 185 -10 15 -29 49
-43 76 -14 28 -31 55 -39 61 -10 8 -40 -34 -138 -198z"/>
</g>
</svg>
