<?xml version="1.0" encoding="UTF-8" standalone="no"?><!DOCTYPE svg PUBLIC "-//W3C//DTD SVG 1.1//EN" "http://www.w3.org/Graphics/SVG/1.1/DTD/svg11.dtd"><svg width="100%" height="100%" viewBox="0 0 812 316" version="1.1" xmlns="http://www.w3.org/2000/svg" xmlns:xlink="http://www.w3.org/1999/xlink" xml:space="preserve" xmlns:serif="http://www.serif.com/" style="fill-rule:evenodd;clip-rule:evenodd;stroke-linejoin:round;stroke-miterlimit:2;"><g><path d="M396.685,0l-56.072,0l-90.585,158.707l55.386,0l91.271,-158.707Z" style="fill:#8600f7;"/><path d="M383.077,23.663l-31.006,53.914l19.264,33.72l-27.023,47.468l-19.533,-33.757l27.292,-47.431" style="fill:#f96ae9;"/><path d="M490.954,0.042l-56.072,0l-90.585,158.708l55.386,-0l91.271,-158.708Z" style="fill:#f400ff;"/><path d="M471.323,101.945l28.19,-46.805l60.53,103.542l-55.465,-0l-33.255,-56.737Z" style="fill:#8600f7;"/></g><g transform="matrix(100,0,0,100,690.836,254.612)"></g><text x="119.236px" y="254.612px" style="font-family:'TenorSans', 'Tenor Sans';font-size:100px;fill:#8600f7;">MARQTIZE</text><g transform="matrix(29.1667,0,0,29.1667,812.917,311.33)"></g><text x="-2.846px" y="311.33px" style="font-family:'WorkSansRoman-Medium', 'Work Sans';font-size:29.167px;fill:#8600f7;">ES<tspan x="33.584px " y="311.33px ">T</tspan>RA<tspan x="87.221px 104.838px 123.009px " y="311.33px 311.33px 311.33px ">TÉG</tspan>IA<tspan x="171.775px " y="311.33px ">S</tspan> INO<tspan x="251.809px 268.959px " y="311.33px 311.33px ">VA</tspan>DORA<tspan x="369.467px " y="311.33px ">S</tspan>, RESUL<tspan x="496.896px 511.888px " y="311.33px 311.33px ">TA</tspan>DOS EX<tspan x="638.063px " y="311.33px ">C</tspan>EPCIONAIS</text></svg>