<svg xmlns="http://www.w3.org/2000/svg" width="413" height="322" viewBox="0 0 413 322" fill="none"><path d="M194.969 282.872C199.503 285.977 203.848 289.407 207.992 293.262L208 293.267L16.4154 83.8109C15.9474 84.6027 15.5005 85.3956 15.0616 86.1933L194.953 282.863L194.969 282.872Z" fill="#F19F00"></path><path d="M233.794 312.775C231.506 311.746 229.276 310.6 227.085 309.291L18.1514 80.8798C18.6262 80.1137 19.0963 79.3557 19.5874 78.599L233.794 312.775Z" fill="#F19F00"></path><path d="M245.417 316.803L245.433 316.807L245.428 316.815L245.417 316.803Z" fill="#F19F00"></path><path d="M245.417 316.803C243.792 316.383 242.19 315.922 240.621 315.405L21.4334 75.7855C21.9279 75.0416 22.4386 74.3071 22.9528 73.5854L245.417 316.803Z" fill="#F19F00"></path><path d="M255.223 318.81C253.799 318.594 252.409 318.355 251.039 318.084L24.902 70.8764C25.4278 70.1722 25.9535 69.468 26.5001 68.765L255.223 318.81Z" fill="#F19F00"></path><path d="M264.141 319.879L264.154 319.88L264.15 319.888L264.141 319.879Z" fill="#F19F00"></path><path d="M264.141 319.879C262.829 319.758 261.542 319.631 260.265 319.487L28.5409 66.1607C29.0863 65.4787 29.6398 64.8013 30.2015 64.1287L264.141 319.879Z" fill="#F19F00"></path><path d="M272.629 320.461C271.376 320.398 270.136 320.332 268.913 320.255L32.3506 61.6316C32.9238 60.9765 33.5052 60.326 34.0865 59.6756L271.474 319.197L272.637 320.465L272.629 320.461Z" fill="#F19F00"></path><path d="M280.843 320.755L280.856 320.755L280.851 320.764L280.843 320.755Z" fill="#F19F00"></path><path d="M280.843 320.755C279.63 320.724 278.418 320.694 277.235 320.648L36.3373 57.3005L36.3048 57.2817C36.9105 56.6454 37.5115 56.0172 38.1206 55.3936L38.2503 55.5443L280.843 320.755Z" fill="#F19F00"></path><path d="M288.806 320.752L288.786 320.752L42.5802 51.5865L42.3244 51.298C41.6921 51.8865 41.0633 52.4879 40.4426 53.0939L40.6638 53.3299L285.284 320.755L288.786 320.752L288.805 320.773L288.806 320.752Z" fill="#F19F00"></path><path d="M296.92 320.941L296.926 320.941L46.9118 47.606L46.671 47.3477C46.0191 47.9141 45.3624 48.4886 44.722 49.0724L44.986 49.3656L293.269 320.802C294.48 320.854 295.696 320.897 296.912 320.94L296.92 320.941Z" fill="#F19F00"></path><path d="M305.086 321.169C303.889 321.16 302.701 321.135 301.497 321.101L49.3208 45.4125L49.1668 45.2477C49.835 44.6908 50.5066 44.1466 51.191 43.5991L51.2385 43.6482L305.078 321.164L305.086 321.169Z" fill="#F19F00"></path><path d="M309.496 321.146C310.644 321.126 311.785 321.102 312.923 321.044L312.915 321.039L55.8646 40.0226L55.8631 40.0237C55.1642 40.5405 54.4652 41.0574 53.7744 41.579L309.496 321.146Z" fill="#F19F00"></path><path d="M320.338 320.461C319.284 320.578 318.206 320.682 317.099 320.78L58.5517 38.0966C59.2671 37.5889 59.9941 37.0987 60.7211 36.6085L320.334 320.448L320.338 320.461Z" fill="#F19F00"></path><path d="M327.332 319.422L327.342 319.42L327.337 319.428L327.332 319.422Z" fill="#F19F00"></path><path d="M327.332 319.422C326.336 319.614 325.32 319.783 324.289 319.944L63.4927 34.8139C64.2396 34.3458 64.9865 33.8776 65.745 33.427L327.332 319.422Z" fill="#F19F00"></path><path d="M333.91 317.904C332.978 318.167 332.026 318.409 331.05 318.636L68.6169 31.727C69.3916 31.2858 70.1744 30.8492 70.9526 30.4207L333.918 317.908L333.91 317.904Z" fill="#F19F00"></path><path d="M337.373 316.858C338.283 316.56 339.167 316.247 340.032 315.912L340.024 315.907L76.337 27.6237C75.5229 28.0206 74.7251 28.4268 73.9226 28.8412L337.373 316.858Z" fill="#F19F00"></path><path d="M345.708 313.415C344.91 313.821 344.092 314.205 343.246 314.583L79.4454 26.1586C80.271 25.7793 81.1129 25.4093 81.95 25.0475L345.704 313.402L345.708 313.415Z" fill="#F19F00"></path><path d="M350.898 310.404L350.903 310.401L350.906 310.413L350.898 310.404Z" fill="#F19F00"></path><path d="M350.898 310.404C350.177 310.885 349.424 311.347 348.662 311.805L85.1604 23.726C86.0301 23.383 86.8951 23.048 87.7635 22.7259L350.898 310.404Z" fill="#F19F00"></path><path d="M355.611 306.858C354.951 307.419 354.279 307.963 353.583 308.493L91.1075 21.5269C92.0131 21.2154 92.9093 20.9201 93.8217 20.6342L355.616 306.849L355.611 306.858Z" fill="#F19F00"></path><path d="M358.015 304.649C358.636 304.043 359.242 303.407 359.818 302.764L359.826 302.769L100.126 18.8567C99.1738 19.0982 98.2254 19.3525 97.2852 19.6115L358.015 304.649Z" fill="#F19F00"></path><path d="M361.947 300.242L103.79 17.9903C104.769 17.7757 105.765 17.5705 106.751 17.3816L363.522 298.096C363.024 298.827 362.498 299.531 361.951 300.234L361.947 300.242Z" fill="#F19F00"></path><path d="M365.341 295.265L365.336 295.274C365.804 294.482 366.256 293.681 366.67 292.869L113.678 16.2864C112.641 16.4135 111.597 16.5696 110.562 16.7304L365.341 295.265Z" fill="#F19F00"></path><path d="M368.201 289.688L368.193 289.679C368.568 288.806 368.935 287.928 369.273 287.024L120.998 15.5919C120.294 15.6296 119.585 15.6755 118.88 15.7341C118.568 15.7564 118.244 15.7863 117.925 15.8158L117.705 15.8361L368.193 289.679L368.188 289.691L368.201 289.688Z" fill="#F19F00"></path><path d="M370.481 283.502L370.489 283.511L370.476 283.514L370.481 283.502Z" fill="#F19F00"></path><path d="M370.481 283.502L125.286 15.4455C126.476 15.4285 127.653 15.4359 128.828 15.4642L371.317 280.576C371.061 281.561 370.785 282.544 370.481 283.502Z" fill="#F19F00"></path><path d="M372.225 276.712L133.482 15.6919C134.779 15.7906 136.07 15.9184 137.344 16.0577L372.802 273.48C372.627 274.571 372.432 275.639 372.221 276.699L372.225 276.712Z" fill="#F19F00"></path><path d="M373.372 269.27C373.501 268.109 373.609 266.947 373.692 265.77L146.752 17.6656C145.321 17.3487 143.893 17.0656 142.445 16.8149L373.372 269.27Z" fill="#F19F00"></path><path d="M373.936 261.199L152.521 19.134C154.187 19.6079 155.837 20.1271 157.463 20.687L374 257.411C373.999 258.689 373.981 259.957 373.944 261.204L373.936 261.199Z" fill="#F19F00"></path><path d="M373.898 252.465C373.853 251.117 373.784 249.755 373.702 248.397L170.215 25.9362C168.25 24.9862 166.253 24.0931 164.235 23.2534L373.898 252.465Z" fill="#F19F00"></path><path d="M373.284 243.102L178.805 30.4801C180.841 31.6796 182.881 33.0048 184.951 34.3498C185.691 34.8306 186.436 35.3143 187.185 35.7954L372.827 238.753C373.004 240.21 373.152 241.661 373.287 243.115L373.284 243.102Z" fill="#F19F00"></path><path d="M372.093 233.099L372.097 233.091C371.875 231.543 371.648 230.003 371.388 228.466L371.037 228.079L202.247 43.5513C200.321 42.9273 198.451 42.1511 196.638 41.2774L372.093 233.099Z" fill="#F19F00"></path><path d="M370.365 222.524L207.853 44.8714C208.995 45.0323 210.153 45.1269 211.341 45.1518C211.366 45.1522 211.391 45.1529 211.417 45.1536L211.418 45.1537C211.492 45.1558 211.569 45.1579 211.644 45.1531L369.451 217.673C369.766 219.285 370.076 220.905 370.374 222.529L370.365 222.524Z" fill="#F19F00"></path><path d="M368.151 211.393L368.169 211.412L368.156 211.416L368.151 211.393Z" fill="#F19F00"></path><path d="M368.151 211.393L215.859 44.9055C216.879 44.79 217.906 44.6245 218.928 44.4124L367.065 206.364C367.434 208.023 367.798 209.69 368.151 211.393Z" fill="#F19F00"></path><path d="M365.6 199.933L365.591 199.923C365.231 198.377 364.871 196.847 364.515 195.337L364.374 194.739L225.268 42.6606C224.363 42.9721 223.458 43.2627 222.539 43.523L365.591 199.923L365.592 199.928L365.6 199.933Z" fill="#F19F00"></path><path d="M362.822 188.196L362.83 188.2C362.403 186.426 361.994 184.695 361.604 183.007L231.111 40.3436C230.264 40.7217 229.419 41.0788 228.57 41.4232L362.822 188.196Z" fill="#F19F00"></path><path d="M360.139 176.555L234.213 38.8909C235.027 38.4941 235.833 38.0925 236.631 37.6863L359.079 171.544C359.399 173.148 359.752 174.825 360.139 176.555Z" fill="#F19F00"></path><path d="M357.995 165.523L358.002 165.53L357.997 165.539L357.995 165.523Z" fill="#F19F00"></path><path d="M357.995 165.523L355.489 162.79L239.623 36.1247C240.311 35.762 240.996 35.3896 241.669 35.0236L241.68 35.0175L241.693 35.0106L241.982 34.8534L357.406 161.047L357.56 161.212C357.644 162.728 357.784 164.169 357.995 165.523Z" fill="#F19F00"></path><path d="M357.453 156.239L244.943 33.2342C245.731 32.7895 246.509 32.361 247.287 31.9326L357.564 152.5C357.5 153.774 357.463 155.021 357.457 156.231L357.453 156.239Z" fill="#F19F00"></path><path d="M357.846 147.98L357.85 147.972C357.941 146.821 358.04 145.654 358.167 144.459L252.613 29.0682L252.288 29.2379C251.607 29.5923 250.921 29.9548 250.23 30.3254L357.846 147.98Z" fill="#F19F00"></path><path d="M358.631 140.147L255.607 27.5048C255.744 27.4342 255.88 27.3634 256.016 27.2926L256.517 27.0322C257.012 26.7743 257.506 26.5172 258.002 26.2651L359.059 136.742C358.906 137.889 358.762 139.019 358.628 140.134L358.631 140.147Z" fill="#F19F00"></path><path d="M359.638 132.547L359.646 132.551C359.8 131.459 359.963 130.351 360.131 129.234L263.448 23.526C262.642 23.9276 261.831 24.3373 261.034 24.7435L359.638 132.547Z" fill="#F19F00"></path><path d="M360.754 125.082L360.743 125.071C360.917 123.985 361.091 122.898 361.262 121.8L268.909 20.8239C268.638 20.9563 268.365 21.0881 268.093 21.22L268.089 21.222L268.088 21.2225C267.545 21.4851 267.002 21.7477 266.467 22.0145L360.743 125.071L360.741 125.085L360.754 125.082Z" fill="#F19F00"></path><path d="M361.936 117.682L361.939 117.685L361.934 117.693L361.936 117.682Z" fill="#F19F00"></path><path d="M361.936 117.682L272.01 19.3763C272.828 18.9923 273.658 18.6048 274.492 18.2301L362.471 114.417C362.422 114.719 362.373 115.02 362.324 115.321L362.324 115.324C362.195 116.113 362.068 116.898 361.936 117.682Z" fill="#F19F00"></path><path d="M363.133 110.291L277.641 16.8308C278.483 16.4609 279.328 16.1037 280.182 15.7512L363.666 107.023C363.486 108.122 363.311 109.213 363.136 110.304L363.133 110.291Z" fill="#F19F00"></path><path d="M364.316 102.892L364.321 102.884C364.492 101.781 364.664 100.677 364.83 99.5811L286.023 13.4364C285.155 13.7586 284.277 14.097 283.415 14.4448L364.316 102.892Z" fill="#F19F00"></path><path d="M365.443 95.4234L289.346 12.2198C290.243 11.9036 291.14 11.6084 292.044 11.3178L365.921 92.0805L365.919 92.0977L365.918 92.1041C365.764 93.2094 365.61 94.3147 365.448 95.4153L365.443 95.4234Z" fill="#F19F00"></path><path d="M366.475 87.8613L366.477 87.849L366.477 87.8478C366.62 86.7216 366.763 85.5955 366.894 84.4727L298.294 9.46584C297.358 9.7167 296.418 9.9757 295.489 10.2522L366.475 87.8613Z" fill="#F19F00"></path><path d="M367.384 80.1536L367.381 80.1498C367.501 78.9882 367.616 77.8346 367.727 76.6891L304.861 7.96148C303.866 8.14575 302.886 8.36031 301.91 8.58773L363.523 75.9413L367.381 80.1498L367.38 80.1617L367.384 80.1536Z" fill="#F19F00"></path><path d="M367.848 71.9761L368.092 72.2471L368.089 72.2343C368.178 71.0289 368.25 69.8351 368.322 68.6413L311.777 6.82513C311.218 6.89255 310.663 6.97282 310.099 7.04836C309.616 7.11612 309.141 7.18857 308.661 7.26916L367.848 71.9761Z" fill="#F19F00"></path><path d="M368.531 64.03L315.804 6.38986C316.924 6.28877 318.021 6.20734 319.11 6.14218L368.607 60.2594C368.599 61.5117 368.578 62.7674 368.539 64.0346L368.531 64.03Z" fill="#F19F00"></path><path d="M368.547 55.3564L368.552 55.362L368.547 55.3701L368.547 55.3564Z" fill="#F19F00"></path><path d="M368.547 55.3564L323.392 6.00274C324.611 5.99169 325.812 6.01319 326.965 6.06118L368.362 51.3191C368.445 52.6523 368.503 53.9923 368.547 55.3564Z" fill="#F19F00"></path><path d="M367.891 45.9434L331.719 6.40039C333.127 6.5519 334.493 6.75564 335.797 7.01031L367.217 41.3502C367.481 42.8458 367.707 44.3854 367.891 45.9434Z" fill="#F19F00"></path><path d="M365.752 34.9246L365.743 34.9139C365.126 32.7393 364.403 30.6549 363.548 28.6675L347.478 11.0998L347.138 10.7305C345.413 9.85369 343.542 9.09841 341.538 8.4613L365.743 34.9139L365.744 34.92L365.752 34.9246Z" fill="#F19F00"></path><path d="M184.829 276.627C182.609 275.389 180.351 274.215 178.062 273.078L12.1739 91.721C12.5768 90.8917 12.9926 90.059 13.4246 89.2357L184.829 276.627Z" fill="#F19F00"></path><path d="M164.644 267.123C166.568 267.898 168.479 268.697 170.362 269.525L170.367 269.517L10.6518 94.8987C10.251 95.7617 9.87116 96.626 9.49944 97.495L164.644 267.123Z" fill="#F19F00"></path><path d="M157.791 264.466L157.774 264.459L157.657 264.323L8.11171 100.832C7.74217 101.735 7.39357 102.639 7.06591 103.544L152.518 262.548C154.282 263.178 156.032 263.81 157.774 264.459L157.786 264.474L157.791 264.466Z" fill="#F19F00"></path><path d="M143.132 259.342C144.109 259.666 145.081 259.989 146.053 260.319L5.84252 107.039C5.52515 107.983 5.21935 108.944 4.93105 109.894L140.977 258.624C141.698 258.866 142.416 259.104 143.132 259.342Z" fill="#F19F00"></path><path d="M134.677 256.568L134.642 256.557L3.87123 113.584C3.61291 114.594 3.35926 115.596 3.12187 116.608L129.679 254.961C130.847 255.333 132.012 255.709 133.171 256.083L133.175 256.084L133.179 256.085L133.185 256.087L133.188 256.088L133.237 256.104C133.706 256.255 134.175 256.407 134.642 256.557L134.667 256.584L134.677 256.568Z" fill="#F19F00"></path><path d="M123.373 252.93L123.385 252.933L123.388 252.946L123.373 252.93Z" fill="#F19F00"></path><path d="M123.373 252.93C121.712 252.391 120.042 251.848 118.373 251.304L118.36 251.3L1.70171 123.754C1.86724 122.68 2.05841 121.598 2.27394 120.531L123.373 252.93Z" fill="#F19F00"></path><path d="M111.967 249.144C110.242 248.549 108.513 247.941 106.781 247.32L0.801225 131.466C0.888038 130.303 0.995776 129.141 1.13728 127.976L111.967 249.144Z" fill="#F19F00"></path><path d="M94.6206 242.707C96.4302 243.438 98.2702 244.153 100.099 244.851L100.095 244.838L0.576432 136.03C0.536754 137.318 0.535527 138.596 0.551804 139.863L94.5141 242.591L94.6206 242.707Z" fill="#F19F00"></path><path d="M87.4746 239.751C85.4956 238.901 83.5179 238.03 81.559 237.127L1.17448 149.248C0.999507 147.825 0.862967 146.392 0.75676 144.943L87.4827 239.756L87.4746 239.751Z" fill="#F19F00"></path><path d="M67.0536 229.966C69.2359 231.14 71.466 232.286 73.7114 233.388L2.08122 155.093C2.4142 156.824 2.79969 158.52 3.24458 160.207L67.0536 229.966Z" fill="#F19F00"></path><path d="M57.8442 224.736C54.9558 223.003 52.126 221.207 49.3883 219.345L8.47648 174.616C7.38741 172.319 6.4068 169.965 5.53938 167.546L57.8489 224.728L57.8442 224.736Z" fill="#F19F00"></path><path d="M34.6556 208.086C27.6215 201.977 21.4115 195.304 16.2739 187.992L34.6556 208.086Z" fill="#F19F00"></path><path d="M62.7734 189.711V186.529L232.749 86.7606C235.946 84.9158 239.692 83.7928 242.889 85.6377L332.131 136.839C332.987 137.333 333.67 138.055 334.098 138.951L334.593 139.98C336.479 143.87 335.048 148.563 331.302 150.715L164.457 246.941C161.259 248.786 156.042 248.786 152.858 246.941L67.469 197.825C64.566 196.154 62.7868 193.066 62.7868 189.724L62.7734 189.711Z" fill="url(#paint0_linear_489_12995)"></path><path d="M65.1714 188.976C61.9741 187.131 61.9741 184.123 65.1714 182.278L232.284 85.8651C235.482 84.0202 240.699 84.0202 243.883 85.8651L331.573 136.451C334.77 138.296 334.77 141.304 331.573 143.149L164.46 239.562C161.263 241.406 156.045 241.406 152.861 239.562L65.1714 188.976Z" fill="#F7F7F7"></path><path d="M85.3047 176.931L223.509 96.6533L311.801 147.6L173.597 227.878L85.3047 176.931Z" fill="white"></path><path d="M287.638 124.246C287.41 124.246 287.183 124.192 286.982 124.072L264.04 110.837C263.411 110.476 263.197 109.674 263.558 109.033C263.919 108.391 264.722 108.19 265.364 108.551L288.307 121.786C288.936 122.147 289.15 122.949 288.788 123.591C288.548 124.019 288.106 124.246 287.651 124.246H287.638Z" fill="#1E5B8A"></path><path d="M111.577 212.812C107.631 210.539 107.631 206.809 111.577 204.537C115.523 202.264 121.971 202.264 125.918 204.537C129.864 206.809 129.864 210.539 125.918 212.812C121.971 215.084 115.523 215.084 111.577 212.812Z" fill="#E6E7E8"></path><path d="M205.5 73.0183L213.794 75.1706L219.72 69.4355L222.249 92.6565L205.5 92.095V73.0183Z" fill="#1E5B8A"></path><path d="M219.719 69.4355L226.528 134.78L268.801 159.178L261.537 94.3142L219.719 69.4355Z" fill="#203E56"></path><path d="M205.5 73.0186V146.184L247.773 170.581V97.4025L205.5 73.0186Z" fill="#1E5B8A"></path><path d="M247.773 97.4026L251.706 94.3145H261.539L268.803 159.178L258.342 162.747L247.773 170.581V97.4026Z" fill="#3F78A4"></path><path d="M213.409 90.4911C212.553 89.9965 211.844 90.3976 211.844 91.3868C211.844 92.3761 212.539 93.5926 213.409 94.0872C214.265 94.5819 214.974 94.1808 214.974 93.1916C214.974 92.2023 214.278 90.9858 213.409 90.4911Z" fill="#BF9105"></path><path d="M236.253 103.806C235.397 103.311 234.688 103.712 234.688 104.701C234.688 105.691 235.383 106.907 236.253 107.402C237.109 107.896 237.818 107.495 237.818 106.506C237.818 105.517 237.122 104.3 236.253 103.806Z" fill="#BF9105"></path><path d="M228.414 127.294C226.942 127.294 225.484 126.906 224.147 126.131C217.083 122.054 212.695 114.46 212.695 106.306V92.2954C212.695 91.9078 213.016 91.5869 213.404 91.5869C213.792 91.5869 214.113 91.9078 214.113 92.2954V106.306C214.113 113.952 218.234 121.078 224.856 124.901C227.09 126.184 229.738 126.184 231.972 124.901C234.206 123.618 235.531 121.318 235.531 118.738V105.597C235.531 105.209 235.852 104.888 236.24 104.888C236.628 104.888 236.949 105.209 236.949 105.597V118.738C236.949 121.826 235.357 124.594 232.681 126.131C231.344 126.906 229.872 127.294 228.414 127.294Z" fill="#FFC31C"></path><path opacity="0.94" d="M13.311 159.205C10.8897 157.814 10.903 155.528 13.311 154.138L79.7307 115.838C82.1521 114.447 86.0985 114.447 88.5198 115.838L124.198 136.425C126.619 137.815 126.619 140.101 124.198 141.492L57.7781 179.792C55.3568 181.182 51.4104 181.182 49.0024 179.792" fill="#354DA7"></path><path opacity="0.96" d="M13.4857 159.151C11.0777 157.761 11.0777 155.488 13.4857 154.112L79.6245 115.971C82.0325 114.581 85.9655 114.581 88.3734 115.971L123.904 136.479C126.312 137.869 126.312 140.142 123.904 141.518L57.7655 179.659C55.3575 181.049 51.4245 181.049 49.0166 179.659L13.4857 159.151Z" fill="#3049A6"></path><path opacity="0.98" d="M13.6553 159.111C11.2607 157.734 11.2607 155.475 13.6553 154.085L79.5266 116.105C81.9212 114.728 85.8408 114.728 88.2354 116.105L123.619 136.519C126.014 137.895 126.014 140.155 123.619 141.545L57.7479 179.525C55.3533 180.902 51.4336 180.902 49.039 179.525L13.6553 159.111Z" fill="#2C46A4"></path><path d="M13.8328 159.058C11.4516 157.681 11.4516 155.435 13.8328 154.058L79.4365 116.239C81.8177 114.862 85.724 114.862 88.1052 116.239L123.342 136.572C125.723 137.949 125.723 140.195 123.342 141.572L57.738 179.391C55.3568 180.768 51.4506 180.768 49.0694 179.391L13.8328 159.058Z" fill="#1E5B8A"></path><path d="M10 155.247C10 154.312 10 153.242 10 152.748C10 152.748 10.6421 153.483 11.9531 152.721L83.8042 111.292C86.4128 109.782 90.6936 109.782 93.3023 111.292L131.897 133.564C133.007 134.206 133.689 132.588 133.85 133.43V136.117C133.85 137.227 133.261 138.243 132.298 138.791L60.0322 180.46C57.4236 181.971 53.1427 181.971 50.5341 180.46L11.5117 157.868C10.5752 157.333 10 156.33 10 155.247Z" fill="url(#paint1_linear_489_12995)"></path><path d="M11.9565 155.448C9.34784 153.937 9.34784 151.478 11.9565 149.967L83.8075 108.538C86.4162 107.028 90.697 107.028 93.3056 108.538L131.9 130.81C134.509 132.321 134.509 134.78 131.9 136.291L60.0489 177.72C57.4403 179.23 53.1595 179.23 50.5508 177.72L11.9565 155.448Z" fill="#F1F2F2"></path><path d="M30.6473 156.331C25.4301 153.323 25.4301 148.403 30.6473 145.382C35.8646 142.374 44.3995 142.374 49.6167 145.382C54.834 148.39 54.834 153.309 49.6167 156.331C44.3995 159.352 35.8646 159.339 30.6473 156.331Z" fill="url(#paint2_linear_489_12995)"></path><path d="M42.8051 154.418L36.4641 154.204C35.8622 154.191 35.3806 153.683 35.4073 153.068C35.4207 152.466 35.9558 151.998 36.5444 152.012L40.8921 152.159L41.7349 145.729C41.8152 145.127 42.3637 144.713 42.9657 144.78C43.5676 144.86 43.9957 145.408 43.9155 146.009L42.8051 154.418Z" fill="white"></path><path d="M48.2891 140.329L53.0381 143.136L96.3146 118.164L91.5121 115.396L48.2891 140.329Z" fill="white"></path><path d="M57.7578 145.943L62.4935 148.75L105.77 123.778L100.967 121.011L57.7578 145.943Z" fill="white"></path><path d="M43.7578 164.793L48.5069 167.6L115.234 129.407L110.432 126.626L43.7578 164.793Z" fill="white"></path><path d="M53.2266 170.421L57.9622 173.215L124.703 135.021L119.9 132.254L53.2266 170.421Z" fill="white"></path><path opacity="0.3" d="M220.978 122.267L216.322 119.741L205.5 113.484V146.183L233.713 162.466V129.767L220.844 122.348L220.978 122.267Z" fill="#231F20"></path><path d="M164.82 132.44L197.261 113.725L229.702 132.44L197.261 151.156L164.82 132.44Z" fill="white"></path><path d="M164.82 132.44V169.872L197.261 188.601V151.156L164.82 132.44Z" fill="#F1F2F2"></path><path d="M197.258 188.601L229.698 169.872V132.44L197.258 151.156V188.601Z" fill="#E6E7E8"></path><path d="M177.797 177.372V139.927L184.285 143.67V181.115L177.797 177.372Z" fill="#1E5B8A"></path><path d="M177.797 139.927L210.251 121.291L216.966 124.941L184.285 143.67L177.797 139.927Z" fill="#1E5B8A"></path><path d="M178.094 124.781L210.24 143.67L216.675 139.807L184.676 120.931L178.094 124.781Z" fill="#1E5B8A"></path><path d="M210.234 143.67V181.115L216.669 177.399V139.807L210.234 143.67Z" fill="#1E5B8A"></path><path d="M214.454 131.852C211.872 130.288 208.836 129.62 205.826 129.941L199.886 130.596L194.977 133.096L208.327 140.328L214.347 137.467C216.541 136.264 216.608 133.149 214.468 131.852H214.454Z" fill="#1E5B8A"></path><path d="M197.597 125.088C196.446 122.294 194.386 119.954 191.777 118.443C190.814 117.895 189.757 117.895 188.861 118.283L188.754 118.337C188.674 118.377 188.594 118.417 188.513 118.457L183.523 121.01L194.975 133.109L199.884 130.609L197.597 125.088Z" fill="#1E5B8A"></path><path d="M194.976 133.109L183.619 126.558C182.615 125.984 182 124.914 182 123.751C182 121.251 184.702 119.7 186.869 120.944C189.491 122.454 191.538 124.794 192.689 127.588L194.976 133.109Z" fill="#FFEB74"></path><path d="M194.976 133.109L183.619 126.558C182.615 125.984 182 124.914 182 123.751C182 121.251 184.702 119.7 186.869 120.944C189.491 122.454 191.538 124.794 192.689 127.588L194.976 133.109Z" fill="#5368B5"></path><path d="M183.827 126.171C182.957 125.676 182.422 124.741 182.422 123.738C182.422 122 183.88 120.931 185.231 120.931C185.726 120.931 186.194 121.064 186.622 121.305C189.151 122.762 191.144 125.048 192.268 127.735L194.06 132.067L183.827 126.158V126.171Z" fill="#203E56"></path><path d="M194.977 133.109L206.187 139.9C207.177 140.502 208.421 140.529 209.424 139.967C211.618 138.764 211.685 135.649 209.545 134.352C206.963 132.788 203.926 132.12 200.916 132.441L194.977 133.096V133.109Z" fill="#5368B5"></path><path d="M207.869 139.927C207.36 139.927 206.852 139.78 206.41 139.526L196.297 133.403L200.966 132.882C201.447 132.829 201.942 132.802 202.424 132.802C204.859 132.802 207.24 133.47 209.313 134.727C210.183 135.248 210.691 136.171 210.664 137.187C210.638 138.203 210.103 139.098 209.206 139.58C208.792 139.807 208.323 139.927 207.855 139.927H207.869Z" fill="#203E56"></path><path d="M120.659 129.42C119.91 130.035 119.469 130.944 119.469 131.92V171.29C119.469 173.856 121.288 177.011 123.509 178.281L185.621 214.242C186.143 214.55 186.785 214.603 187.36 214.403C189.808 213.534 191.454 211.208 191.454 208.601V171.103C191.454 168.536 189.634 165.394 187.414 164.111L126.679 128.952C124.766 127.842 122.372 128.03 120.659 129.42Z" fill="#1E5B8A"></path><path d="M123.509 130.717C121.288 129.433 119.469 130.489 119.469 133.043V171.611C119.469 174.177 121.288 177.319 123.509 178.602L184.618 213.855C186.838 215.138 188.658 214.082 188.658 211.529V172.961C188.658 170.394 186.838 167.253 184.618 165.969L123.509 130.717Z" fill="#1E5B8A"></path><path d="M184.619 165.969L123.51 130.717C122.547 130.169 121.664 130.048 120.969 130.289L144.861 169.565C147.871 174.512 153.757 176.918 159.376 175.501L187.134 168.482C186.439 167.44 185.569 166.531 184.606 165.969H184.619Z" fill="#2E4E67"></path><path d="M189.137 154.512C182.929 150.93 177.859 153.857 177.859 161.023C177.859 168.188 182.929 176.971 189.137 180.554C195.344 184.137 200.414 181.209 200.414 174.043C200.414 166.878 195.344 158.095 189.137 154.512Z" fill="#FFC31C"></path><path d="M187.129 155.181C180.922 151.598 175.852 154.526 175.852 161.692C175.852 168.857 180.922 177.64 187.129 181.223C193.336 184.806 198.406 181.878 198.406 174.712C198.406 167.547 193.336 158.764 187.129 155.181Z" fill="#FFC31C"></path><path d="M187.135 159.525C183.002 157.146 179.617 159.098 179.617 163.857C179.617 168.616 183.002 174.471 187.135 176.864C191.269 179.244 194.654 177.292 194.654 172.533C194.654 167.774 191.269 161.918 187.135 159.525Z" fill="#FFCD39"></path><path d="M190.37 166.33L190.142 167.72L186.798 165.996L186.597 167.199C186.851 167.266 187.146 167.386 187.467 167.547C188.283 167.961 188.952 168.536 189.473 169.258C189.995 169.98 190.196 170.702 190.089 171.41C189.968 172.119 189.58 172.546 188.885 172.694C188.203 172.841 187.413 172.694 186.517 172.226C185.367 171.637 184.47 170.782 183.828 169.659L185.005 169.004C185.072 169.097 185.152 169.231 185.26 169.378C185.367 169.525 185.567 169.766 185.862 170.073C186.156 170.394 186.477 170.621 186.798 170.795C187.119 170.956 187.413 171.022 187.694 170.996C187.975 170.956 188.136 170.782 188.189 170.461C188.243 170.14 188.149 169.819 187.908 169.512C187.667 169.204 187.333 168.924 186.905 168.71C186.477 168.482 185.955 168.362 185.353 168.335L184.684 167.212L185.246 163.71L190.356 166.344L190.37 166.33Z" fill="white"></path><path d="M137.088 28.4482H135.75V109.848H137.088V28.4482Z" fill="#1E5B8A"></path><path d="M105.247 91.4265L103.977 91.1324L136.417 24.6914L168.871 91.1324L167.6 91.4265L136.417 27.6859L105.247 91.4265Z" fill="#1E5B8A"></path><path d="M106.947 43.8087L106.867 45.3995L132.338 37.4186L131.415 33.3145L106.947 43.8087Z" fill="#D1D3D4"></path><path d="M166.641 43.8087L166.721 45.3995L141.25 37.4186L142.173 33.3145L166.641 43.8087Z" fill="#D1D3D4"></path><path d="M167.202 17.018H168.527L170.333 6.6709H165.383L167.202 17.018Z" fill="#FFC31C"></path><path d="M105.683 17.018H104.358L102.539 6.6709H107.489L105.683 17.018Z" fill="#FFC31C"></path><path d="M104.781 10.2139V11.8716L124.018 27.272L126.801 24.4245L104.781 10.2139Z" fill="#D1D3D4"></path><path d="M168.447 10.2139V11.8716L149.197 27.272L146.414 24.4245L168.447 10.2139Z" fill="#D1D3D4"></path><path d="M137.865 38.6348H136.086V42.017H137.865V38.6348Z" fill="#BCBEC0"></path><path d="M123.031 26.1885V35.5731L123.098 35.6132C131.7 40.5729 142.295 40.6264 150.937 35.7335V26.6965L123.031 26.1885Z" fill="#D1D3D4"></path><path d="M104.047 7.68706L94.8164 13.0211L93.3047 12.1387L98.0939 7.67369L104.047 6.37695V7.68706Z" fill="#FFC31C"></path><path d="M116.717 1.04274L107.473 6.37673L105.961 5.50778L110.75 1.02937L115.513 0L116.717 1.04274Z" fill="#FFC31C"></path><path d="M106.766 5.37423C105.803 4.81276 104.225 4.81276 103.261 5.37423C102.298 5.9357 102.298 6.84475 103.261 7.39286C104.225 7.95433 105.803 7.95433 106.766 7.39286C107.73 6.83139 107.73 5.92233 106.766 5.37423Z" fill="#1E5B8A"></path><path d="M106.025 5.86856C105.463 5.54772 104.554 5.54772 103.992 5.86856C103.43 6.1894 103.43 6.72414 103.992 7.04498C104.554 7.36582 105.463 7.36582 106.025 7.04498C106.587 6.72414 106.587 6.1894 106.025 5.86856Z" fill="#414042"></path><path d="M106.025 5.61465C105.463 5.29381 104.554 5.29381 103.992 5.61465C103.43 5.9355 103.43 6.47023 103.992 6.79107C104.554 7.11192 105.463 7.11192 106.025 6.79107C106.587 6.47023 106.587 5.9355 106.025 5.61465Z" fill="white"></path><path d="M168.82 7.68706L178.064 13.0211L179.576 12.1387L174.773 7.67369L168.82 6.37695V7.68706Z" fill="#FFC31C"></path><path d="M156.164 1.04274L165.395 6.37673L166.906 5.50778L162.117 1.02937L157.355 0L156.164 1.04274Z" fill="#FFC31C"></path><path d="M166.105 5.37423C167.068 4.81276 168.647 4.81276 169.61 5.37423C170.573 5.9357 170.573 6.84475 169.61 7.39286C168.647 7.95433 167.068 7.95433 166.105 7.39286C165.142 6.83139 165.142 5.92233 166.105 5.37423Z" fill="#1E5B8A"></path><path d="M166.843 5.86856C167.405 5.54772 168.315 5.54772 168.877 5.86856C169.439 6.1894 169.439 6.72414 168.877 7.04498C168.315 7.36582 167.405 7.36582 166.843 7.04498C166.281 6.72414 166.281 6.1894 166.843 5.86856Z" fill="#414042"></path><path d="M166.843 5.61465C167.405 5.29381 168.315 5.29381 168.877 5.61465C169.439 5.9355 169.439 6.47023 168.877 6.79107C168.315 7.11192 167.405 7.11192 166.843 6.79107C166.281 6.47023 166.281 5.9355 166.843 5.61465Z" fill="white"></path><path d="M146.856 20.4939C141.424 17.3523 132.528 17.3523 127.097 20.4939C121.666 23.6221 121.666 28.7556 127.097 31.8971C132.528 35.0387 141.424 35.0387 146.856 31.8971C152.287 28.7689 152.287 23.6355 146.856 20.4939Z" fill="#E6E7E8"></path><path d="M141.867 33.2073L166.268 43.8085L168.448 42.5519L143.566 26.5098L141.867 33.2073Z" fill="#E6E7E8"></path><path d="M131.416 33.3143L106.948 43.8085L104.781 42.5519L129.65 26.5098L131.416 33.3143Z" fill="#E6E7E8"></path><path d="M142.992 18.996L166.269 8.96973L168.45 10.213L143.567 26.2684L142.992 18.996Z" fill="#E6E7E8"></path><path d="M130.921 19.3169L106.948 8.96973L104.781 10.213L129.65 26.2684L130.921 19.3169Z" fill="#E6E7E8"></path><path d="M168.925 52.8182H167.601L165.781 42.4844H170.731L168.925 52.8182Z" fill="#FFC31C"></path><path d="M167.31 43.5005L158.066 48.8212L156.555 47.9522L161.344 43.4872L167.31 42.1904V43.5005Z" fill="#FFC31C"></path><path d="M179.967 36.8572L170.723 42.1912L169.211 41.3222L174.013 36.8438L178.776 35.8145L179.967 36.8572Z" fill="#FFC31C"></path><path d="M170.009 41.175C169.045 40.6135 167.467 40.6135 166.504 41.175C165.54 41.7365 165.54 42.6455 166.504 43.1936C167.467 43.7417 169.045 43.7551 170.009 43.1936C170.972 42.6322 170.972 41.7231 170.009 41.175Z" fill="#1E5B8A"></path><path d="M169.275 41.683C168.713 41.3622 167.804 41.3622 167.242 41.683C166.68 42.0039 166.68 42.5386 167.242 42.8594C167.804 43.1803 168.713 43.1803 169.275 42.8594C169.837 42.5386 169.837 42.0039 169.275 41.683Z" fill="#414042"></path><path d="M169.275 41.4291C168.713 41.1083 167.804 41.1083 167.242 41.4291C166.68 41.7499 166.68 42.2847 167.242 42.6055C167.804 42.9264 168.713 42.9264 169.275 42.6055C169.837 42.2847 169.837 41.7499 169.275 41.4291Z" fill="white"></path><path d="M104.366 52.8182H105.691L107.497 42.4844H102.547L104.366 52.8182Z" fill="#FFC31C"></path><path d="M105.984 43.5005L115.215 48.8212L116.727 47.9522L111.937 43.4872L105.984 42.1904V43.5005Z" fill="#FFC31C"></path><path d="M93.3203 36.8572L102.564 42.1912L104.076 41.3222L99.2867 36.8438L94.5243 35.8145L93.3203 36.8572Z" fill="#FFC31C"></path><path d="M103.269 41.175C104.232 40.6135 105.811 40.6135 106.774 41.175C107.737 41.7365 107.737 42.6455 106.774 43.1936C105.811 43.7417 104.232 43.7551 103.269 43.1936C102.306 42.6322 102.306 41.7231 103.269 41.175Z" fill="#1E5B8A"></path><path d="M104.007 41.683C104.569 41.3622 105.479 41.3622 106.041 41.683C106.603 42.0039 106.603 42.5386 106.041 42.8594C105.479 43.1803 104.569 43.1803 104.007 42.8594C103.445 42.5386 103.445 42.0039 104.007 41.683Z" fill="#414042"></path><path d="M104.007 41.4291C104.569 41.1083 105.479 41.1083 106.041 41.4291C106.603 41.7499 106.603 42.2847 106.041 42.6055C105.479 42.9264 104.569 42.9264 104.007 42.6055C103.445 42.2847 103.445 41.7499 104.007 41.4291Z" fill="white"></path><path d="M139.301 43.634C139.301 44.9174 138.257 45.9468 136.986 45.9468C135.715 45.9468 134.672 44.904 134.672 43.634C134.672 42.364 135.715 41.3213 136.986 41.3213C138.257 41.3213 139.301 42.364 139.301 43.634Z" fill="#E6E7E8"></path><path d="M138.75 43.6347C138.75 44.6106 137.961 45.3994 136.985 45.3994C136.008 45.3994 135.219 44.6106 135.219 43.6347C135.219 42.6589 136.008 41.8701 136.985 41.8701C137.961 41.8701 138.75 42.6589 138.75 43.6347Z" fill="white"></path><path d="M138.159 43.6344C138.159 44.2895 137.637 44.8108 136.982 44.8108C136.326 44.8108 135.805 44.2761 135.805 43.6344C135.805 42.9927 136.326 42.458 136.982 42.458C137.637 42.458 138.159 42.9794 138.159 43.6344Z" fill="#4782D9"></path><path d="M137.534 43.634C137.534 43.9415 137.28 44.1821 136.986 44.1821C136.692 44.1821 136.438 43.9281 136.438 43.634C136.438 43.3399 136.692 43.0859 136.986 43.0859C137.28 43.0859 137.534 43.3399 137.534 43.634Z" fill="#1E5B8A"></path><path d="M143.976 22.1517C140.124 19.9325 133.836 19.9325 129.983 22.1517C126.131 24.3708 126.131 28.007 129.983 30.2262C133.836 32.4453 140.124 32.4453 143.976 30.2262C147.829 28.007 147.829 24.3708 143.976 22.1517Z" fill="url(#paint3_linear_489_12995)"></path><path d="M135.631 36.041H134.133V37.418H135.631V36.041Z" fill="#1E5B8A"></path><path d="M137.694 36.041H136.195V37.418H137.694V36.041Z" fill="#FFC31C"></path><path d="M139.748 36.041H138.25V37.418H139.748V36.041Z" fill="#4782D9"></path><path d="M103.977 91.1328L136.417 72.417L168.871 91.1328L136.417 109.849L103.977 91.1328Z" fill="#F7F7F7"></path><path d="M103.977 91.1328V105.17L136.417 123.885V109.849L103.977 91.1328Z" fill="#E6E7E8"></path><path d="M105.484 94.4883V98.0309L113.658 102.75V99.2073L105.484 94.4883Z" fill="white"></path><path d="M136.414 123.885L168.868 105.17V91.1328L136.414 109.849V123.885Z" fill="#D1D3D4"></path><path d="M116.953 112.656V98.6191L123.441 102.362V116.399L116.953 112.656Z" fill="#1E5B8A"></path><path d="M116.953 98.619L149.421 79.9834L156.123 83.6196L123.441 102.362L116.953 98.619Z" fill="#1E5B8A"></path><path d="M137.088 109.501L136.419 109.848L135.75 109.461V65.0508H137.088V109.501Z" fill="#1E5B8A"></path><path d="M244.969 250.189L277.633 231.376L318.392 254.908L285.728 273.7L244.969 250.189Z" fill="#1E5B8A"></path><path d="M303.944 272.557L283.381 283.587L281.5 255.378H299.631L299.59 265.898L301.614 266.449L303.944 272.557Z" fill="#1E327A"></path><path d="M367.843 235.523L347.524 247.718L345.398 218.364H363.55L364.47 226.596L365.512 229.415L367.843 235.523Z" fill="#1E327A"></path><path d="M340.943 246.88L332.828 242.161V223.389L340.943 227.556V246.88Z" fill="#1E327A"></path><path d="M346.729 224.88C341.721 227.76 337.633 234.849 337.633 240.609C337.633 246.369 341.721 248.841 346.729 246.063C351.737 243.285 355.825 236.217 355.825 230.334C355.825 224.451 351.737 222 346.729 224.88Z" fill="#1E5B8A"></path><path d="M285.732 289.633L277.617 284.915V266.143L285.732 270.33V289.633Z" fill="#1E327A"></path><path d="M350.834 251.824L345.192 248.535C343.659 247.636 342.719 246.002 342.719 244.225V228.312L350.834 232.48V251.803V251.824Z" fill="#1E327A"></path><path d="M356.62 229.824C351.612 232.704 347.523 239.792 347.523 245.552C347.523 251.313 351.612 253.784 356.62 251.006C361.628 248.228 365.716 241.161 365.716 235.278C365.716 229.395 361.628 226.943 356.62 229.824Z" fill="#1E5B8A"></path><path d="M356.623 234.623C353.884 236.196 351.656 240.077 351.656 243.223C351.656 246.369 353.884 247.717 356.623 246.205C359.362 244.694 361.591 240.813 361.591 237.606C361.591 234.399 359.362 233.051 356.623 234.623Z" fill="white"></path><path d="M309.071 222.388L376.996 183.209L328.102 155L260.156 194.158L309.071 222.388Z" fill="#F1F2F2"></path><path d="M309.071 222.388V260.076L260.156 231.866V194.158L309.071 222.388Z" fill="#D1D3D4"></path><path d="M309.078 260.075L377.003 220.917V183.209L309.078 222.388V260.075Z" fill="#E6E7E8"></path><path d="M309.078 247.043L377.003 208.437V203.8L309.078 242.386V247.043Z" fill="#1E5B8A"></path><path d="M309.077 247.003L271.445 225.555V220.918L309.077 242.346V247.003Z" fill="#1E5B8A"></path><path d="M224 262.466V269.227L267.028 293.984V287.121L224 262.466Z" fill="#D1D3D4"></path><path d="M267.052 293.985L279.337 287.121V280.033L267.031 287.121L267.052 293.985Z" fill="#F1F2F2"></path><path d="M226.289 223.532L267.028 247.044V284.649L226.289 261.138V223.532Z" fill="#1E5B8A"></path><path d="M226.289 226.27L264.268 248.085V272.046L226.289 250.23V226.27Z" fill="url(#paint4_linear_489_12995)"></path><path d="M256.422 270.902L265.355 276.05V281.688L256.422 276.561V270.902Z" fill="white"></path><path d="M238.781 261.792L254.541 271.209V273.333L238.781 263.937V261.792Z" fill="#1E5B8A"></path><path d="M228.07 254.377L237.023 259.504V265.142L228.07 260.015V254.377Z" fill="white"></path><path d="M281.135 286.079C281.054 285.487 280.992 284.874 280.992 284.2C280.992 277.541 285.714 269.37 291.479 266.041C294.729 264.161 297.652 264.243 299.594 265.898L299.696 228.23L267.031 247.044V287.141L279.316 280.053V287.141L281.115 286.079H281.135Z" fill="#1E5B8A"></path><path d="M291.495 267.654C286.487 270.534 282.398 277.622 282.398 283.382C282.398 289.163 286.487 291.614 291.495 288.836C296.503 286.058 300.591 278.991 300.591 273.108C300.591 267.225 296.503 264.774 291.495 267.654Z" fill="#1E5B8A"></path><path d="M291.498 272.454C288.759 274.027 286.531 277.908 286.531 281.054C286.531 284.2 288.759 285.548 291.498 284.037C294.237 282.525 296.466 278.644 296.466 275.437C296.466 272.23 294.237 270.882 291.498 272.454Z" fill="white"></path><path d="M226.289 223.532L258.954 204.719L299.713 228.23L267.028 247.043L226.289 223.532Z" fill="#1E5B8A"></path><path d="M269.867 249.576L296.89 234.338V249.883L283.399 257.686L283.379 268.696L269.969 276.438L269.867 249.576Z" fill="url(#paint5_linear_489_12995)"></path><path d="M363.672 228.577L363.754 228.904C365.184 230.191 366.145 232.315 366.145 235.216C366.145 235.665 366.125 236.135 366.084 236.605L374.281 231.825V222.429L363.672 228.577Z" fill="#1E5B8A"></path><path d="M347.094 247.554C347.012 247.044 346.971 246.492 346.971 245.9C346.971 242.918 347.993 239.608 349.669 236.646L299.609 265.714V266C301.04 267.287 302.001 269.411 302.001 272.312C302.001 272.761 301.981 273.231 301.94 273.701L347.094 247.534V247.554Z" fill="#1E5B8A"></path><path d="M226.289 261.138L224 262.465L267.028 287.121L269.358 285.793L226.289 261.138Z" fill="#F1F2F2"></path><path d="M279.333 280.033L277.371 278.889L265.352 285.875L267.314 286.998L279.333 280.033Z" fill="#F1F2F2"></path><path d="M252.679 241.426L249.143 239.384L233.914 254.602L237.45 256.644L252.679 241.426Z" fill="#B5CDF0"></path><path d="M235.181 231.376L226.289 240.282V250.23L230.704 252.763L245.933 237.545L235.181 231.376Z" fill="#B5CDF0"></path><path d="M282.91 242.223L280.436 243.612L269.93 264.978V268.573L282.91 242.223Z" fill="#B5CDF0"></path><path d="M269.867 250.761L269.908 261.689L278.187 244.878L270.664 249.127L269.867 250.761Z" fill="#B5CDF0"></path><path d="M355.475 170.606L345.868 164.764L307.582 187.131L298.956 182.147C298.527 181.902 298.016 182.208 298.016 182.698V199.305C298.016 199.673 298.322 199.959 298.69 199.939L324.65 198.325C325.263 198.284 325.468 197.467 324.916 197.161L317.148 192.687L355.475 170.647V170.606Z" fill="#FFC31C"></path><path d="M315.797 64.1149C314.62 63.4331 312.68 63.4331 311.503 64.1149L272.601 85.4508C272.012 85.785 270.821 85.892 270.821 85.892V87.6834C270.795 88.4988 271.223 89.2608 271.945 89.6753L311.503 112.535C312.68 113.217 314.62 113.217 315.797 112.535L355.314 89.6084C355.93 89.2475 356.304 88.5924 356.304 87.8839V86.6273C356.304 86.3465 356.09 86.1193 355.823 86.0925C355.435 86.0524 354.913 85.9588 354.659 85.8118L315.797 64.1149Z" fill="url(#paint6_linear_489_12995)"></path><path d="M315.799 61.9225C314.622 61.2407 312.682 61.2407 311.505 61.9225L271.68 84.9028C270.503 85.5846 270.503 86.6941 271.68 87.3759L311.505 110.356C312.682 111.038 314.622 111.038 315.799 110.356L355.424 87.3893C356.601 86.7075 356.601 85.5846 355.424 84.9028L315.799 61.9358V61.9225Z" fill="#F7F7F7"></path><path d="M319.971 84.9692L317.991 83.8195C316.346 84.7018 313.737 84.6884 312.132 83.766C310.527 82.8302 310.5 81.333 312.052 80.3704L310.741 79.6084C308.574 78.3518 305.952 78.1245 303.61 78.9935L300.346 80.4373C299.423 80.8517 299.37 82.1484 300.253 82.6297L302.38 83.7928L303.731 83.8462L301.671 85.4772C299.022 87.576 296.106 89.3139 292.989 90.6106L291.129 91.386C290.407 91.6935 290.34 92.6961 291.022 93.0838L303.156 100.089C303.503 100.289 303.932 100.249 304.226 100.009L306.152 98.4579C308.507 96.5596 311.115 94.9955 313.925 93.8458L318.098 92.1346L317.496 93.7656L321.443 95.7976C322.098 96.1318 322.901 95.8243 323.155 95.1292L323.623 93.8725C324.587 90.4235 323.088 86.7739 319.998 84.9692H319.971Z" fill="url(#paint7_linear_489_12995)"></path><path d="M313.098 64.7695L326.998 72.7772L324.215 74.3814L310.289 66.3871L313.098 64.7695Z" fill="#D4D9EC"></path><path d="M308.364 67.8584L341.527 86.8282L338.745 88.4324L305.555 69.4893L308.364 67.8584Z" fill="#D4D9EC"></path><path d="M369.399 94.6481C368.221 93.9663 366.282 93.9663 365.104 94.6481L326.202 115.984C325.614 116.318 324.423 116.425 324.423 116.425V118.217C324.396 119.032 324.824 119.794 325.547 120.208L365.104 143.068C366.282 143.75 368.221 143.75 369.399 143.068L408.916 120.142C409.531 119.781 409.906 119.126 409.906 118.417V117.16C409.906 116.88 409.692 116.652 409.424 116.626C409.036 116.586 408.515 116.492 408.26 116.345L369.399 94.6481Z" fill="url(#paint8_linear_489_12995)"></path><path d="M369.401 92.4557C368.223 91.7739 366.284 91.7739 365.106 92.4557L325.281 115.436C324.104 116.118 324.104 117.227 325.281 117.909L365.106 140.889C366.284 141.571 368.223 141.571 369.401 140.889L409.025 117.922C410.202 117.241 410.202 116.118 409.025 115.436L369.401 92.469V92.4557Z" fill="#F7F7F7"></path><path d="M366.716 95.29L380.615 103.311L377.832 104.915L363.906 96.921L366.716 95.29Z" fill="#D4D9EC"></path><path d="M361.973 98.3916L395.136 117.348L392.354 118.952L359.164 100.009L361.973 98.3916Z" fill="#D4D9EC"></path><path d="M374.055 114.794L371.085 117.12L370.764 116.519C370.35 115.743 369.547 115.275 368.664 115.315L365.453 115.422L365.239 113.938C365.092 112.936 364.209 112.134 363.166 112.054L365.708 110.022C366.069 109.741 366.042 109.179 365.654 108.925C365.413 108.778 365.106 108.792 364.878 108.965L361.213 111.893L359.674 112.936L355.634 116.238C354.979 116.773 354.216 117.214 353.4 117.521L345.574 120.449C344.531 120.837 344.464 122.214 345.454 122.842L358.537 131.21C359.327 131.718 360.357 131.411 360.624 130.596L361.427 128.229C362.938 123.751 366.51 120.315 371.179 118.845C371.393 118.778 371.634 118.698 371.875 118.631L375.152 116.037C375.513 115.757 375.487 115.195 375.099 114.941L374.818 114.767C374.577 114.62 374.269 114.634 374.042 114.807L374.055 114.794Z" fill="url(#paint9_linear_489_12995)"></path><path d="M201.118 74.462C201.118 67.0292 197.399 61 192.797 61H189.721V61.9625C186.644 63.941 184.477 68.7938 184.477 74.462C184.477 76.895 184.878 79.1677 185.587 81.1462H185.574L189.868 90.2501V96.7739H192.945L200.035 81.1462H200.021C200.717 79.181 201.132 76.895 201.132 74.462H201.118ZM192.797 81.2531C190.456 81.2531 188.57 78.1918 188.57 74.4085C188.57 70.6253 190.47 67.5639 192.797 67.5639C195.125 67.5639 197.025 70.6253 197.025 74.4085C197.025 78.1918 195.125 81.2531 192.797 81.2531Z" fill="url(#paint10_linear_489_12995)"></path><path d="M198.056 74.462C198.056 67.0292 194.337 61 189.735 61C185.133 61 181.414 67.0292 181.414 74.462C181.414 76.895 181.815 79.1677 182.524 81.1462H182.511L189.882 96.7739L196.972 81.1462H196.959C197.654 79.181 198.056 76.895 198.056 74.462ZM189.735 81.2531C187.394 81.2531 185.508 78.1918 185.508 74.4085C185.508 70.6253 187.407 67.5639 189.735 67.5639C192.063 67.5639 193.962 70.6253 193.962 74.4085C193.962 78.1918 192.063 81.2531 189.735 81.2531Z" fill="url(#paint11_linear_489_12995)"></path><path opacity="0.78" d="M91.5558 237.225C85.9773 234.003 76.8404 234.003 71.262 237.225C65.6835 240.447 65.6835 245.714 71.262 248.936C76.8404 252.157 85.9773 252.157 91.5558 248.936C97.1342 245.714 97.1342 240.447 91.5558 237.225Z" fill="#576BB6"></path><path opacity="0.8" d="M81.4192 251.195C89.1843 251.195 95.4791 247.562 95.4791 243.08C95.4791 238.599 89.1843 234.966 81.4192 234.966C73.6542 234.966 67.3594 238.599 67.3594 243.08C67.3594 247.562 73.6542 251.195 81.4192 251.195Z" fill="#5267B4"></path><path opacity="0.83" d="M91.1395 237.452C85.7885 234.364 77.0261 234.364 71.6617 237.452C66.3107 240.54 66.3107 245.593 71.6617 248.681C77.0128 251.769 85.7751 251.769 91.1395 248.681C96.4905 245.593 96.4905 240.54 91.1395 237.452Z" fill="#4D62B2"></path><path opacity="0.85" d="M90.9414 237.573C85.6974 234.551 77.1223 234.551 71.8783 237.573C66.6343 240.594 66.6343 245.554 71.8783 248.575C77.1223 251.596 85.6974 251.596 90.9414 248.575C96.1854 245.554 96.1854 240.594 90.9414 237.573Z" fill="#475EB0"></path><path opacity="0.88" d="M90.7411 237.692C85.6041 234.738 77.2163 234.738 72.0793 237.692C66.9423 240.647 66.9423 245.5 72.0793 248.454C77.2163 251.408 85.6041 251.408 90.7411 248.454C95.878 245.5 95.878 240.647 90.7411 237.692Z" fill="#4259AD"></path><path opacity="0.9" d="M81.4172 250.526C88.5468 250.526 94.3266 247.192 94.3266 243.08C94.3266 238.968 88.5468 235.634 81.4172 235.634C74.2875 235.634 68.5078 238.968 68.5078 243.08C68.5078 247.192 74.2875 250.526 81.4172 250.526Z" fill="#3D54AB"></path><path opacity="0.93" d="M90.3248 237.933C85.4152 235.099 77.3886 235.099 72.4791 237.933C67.5695 240.767 67.5695 245.393 72.4791 248.227C77.3886 251.061 85.4152 251.061 90.3248 248.227C95.2343 245.393 95.2343 240.767 90.3248 237.933Z" fill="#3850A9"></path><path opacity="0.95" d="M90.1245 238.04C85.3353 235.273 77.4826 235.273 72.6934 238.04C67.9043 240.808 67.9043 245.326 72.6934 248.093C77.4826 250.861 85.3353 250.861 90.1245 248.093C94.9136 245.326 94.9136 240.808 90.1245 238.04Z" fill="#324BA7"></path><path opacity="0.98" d="M89.9241 238.161C85.2419 235.461 77.5766 235.461 72.8944 238.161C68.2123 240.861 68.2123 245.286 72.8944 247.987C77.5766 250.687 85.2419 250.687 89.9241 247.987C94.6063 245.286 94.6063 240.861 89.9241 238.161Z" fill="#2D47A4"></path><path d="M89.726 238.281C85.1509 235.647 77.6728 235.647 73.111 238.281C68.5359 240.914 68.5359 245.232 73.111 247.866C77.6862 250.5 85.1642 250.5 89.726 247.866C94.2878 245.232 94.3011 240.914 89.726 238.281Z" fill="#1E5B8A"></path><path d="M81.5782 251.355C91.2863 251.355 99.1563 246.819 99.1563 241.222C99.1563 235.626 91.2863 231.089 81.5782 231.089C71.87 231.089 64 235.626 64 241.222C64 246.819 71.87 251.355 81.5782 251.355Z" fill="url(#paint12_linear_489_12995)"></path><path d="M94.006 231.958C87.17 228.014 75.9864 228.014 69.1504 231.958C62.3144 235.901 62.3144 242.358 69.1504 246.302C75.9864 250.246 87.17 250.246 94.006 246.302C100.842 242.358 100.842 235.901 94.006 231.958Z" fill="url(#paint13_linear_489_12995)"></path><path d="M85.8189 243.268C85.8189 243.268 85.4845 243.268 85.3641 243.268L74.9296 242.345L74.555 235.22C74.5416 234.337 74.9831 233.509 75.9061 232.92C77.8191 231.704 81.0164 231.985 83.0498 233.535C84.0798 234.324 84.6149 235.287 84.6417 236.196C85.9527 236.303 87.2771 236.757 88.3205 237.533C90.3673 239.083 90.4743 241.316 88.5613 242.532C87.7988 243.014 86.8222 243.254 85.8055 243.281L85.8189 243.268Z" fill="white"></path><path opacity="0.78" d="M130.681 259.229C125.102 256.007 115.965 256.007 110.387 259.229C104.809 262.451 104.809 267.718 110.387 270.94C115.965 274.161 125.102 274.161 130.681 270.94C136.259 267.718 136.259 262.451 130.681 259.229Z" fill="#576BB6"></path><path opacity="0.8" d="M120.544 273.185C128.309 273.185 134.604 269.552 134.604 265.071C134.604 260.589 128.309 256.956 120.544 256.956C112.779 256.956 106.484 260.589 106.484 265.071C106.484 269.552 112.779 273.185 120.544 273.185Z" fill="#5267B4"></path><path opacity="0.83" d="M130.264 259.456C124.913 256.368 116.151 256.368 110.787 259.456C105.436 262.544 105.436 267.597 110.787 270.685C116.138 273.773 124.9 273.773 130.264 270.685C135.616 267.597 135.616 262.544 130.264 259.456Z" fill="#4D62B2"></path><path opacity="0.85" d="M130.066 259.576C124.822 256.555 116.247 256.555 111.003 259.576C105.759 262.598 105.759 267.557 111.003 270.579C116.247 273.6 124.822 273.6 130.066 270.579C135.31 267.557 135.31 262.598 130.066 259.576Z" fill="#475EB0"></path><path opacity="0.88" d="M129.866 259.696C124.729 256.742 116.341 256.742 111.204 259.696C106.067 262.651 106.067 267.503 111.204 270.458C116.341 273.412 124.729 273.412 129.866 270.458C135.003 267.503 135.003 262.651 129.866 259.696Z" fill="#4259AD"></path><path opacity="0.9" d="M120.542 272.517C127.672 272.517 133.452 269.184 133.452 265.071C133.452 260.959 127.672 257.625 120.542 257.625C113.413 257.625 107.633 260.959 107.633 265.071C107.633 269.184 113.413 272.517 120.542 272.517Z" fill="#3D54AB"></path><path opacity="0.93" d="M129.45 259.924C124.54 257.09 116.514 257.09 111.604 259.924C106.694 262.759 106.694 267.384 111.604 270.218C116.514 273.052 124.54 273.052 129.45 270.218C134.359 267.384 134.359 262.759 129.45 259.924Z" fill="#3850A9"></path><path opacity="0.95" d="M129.249 260.044C124.46 257.277 116.608 257.277 111.818 260.044C107.029 262.811 107.029 267.33 111.818 270.097C116.608 272.865 124.46 272.865 129.249 270.097C134.039 267.33 134.039 262.811 129.249 260.044Z" fill="#324BA7"></path><path opacity="0.98" d="M129.049 260.165C124.367 257.465 116.702 257.465 112.019 260.165C107.337 262.865 107.337 267.29 112.019 269.991C116.702 272.691 124.367 272.691 129.049 269.991C133.731 267.29 133.731 262.865 129.049 260.165Z" fill="#2D47A4"></path><path d="M128.851 260.285C124.276 257.651 116.798 257.651 112.236 260.285C107.661 262.918 107.661 267.236 112.236 269.87C116.811 272.503 124.289 272.503 128.851 269.87C133.413 267.236 133.426 262.918 128.851 260.285Z" fill="#1E5B8A"></path><path d="M120.688 273.359C130.396 273.359 138.266 268.822 138.266 263.226C138.266 257.63 130.396 253.093 120.688 253.093C110.979 253.093 103.109 257.63 103.109 263.226C103.109 268.822 110.979 273.359 120.688 273.359Z" fill="#C69B25"></path><path d="M133.115 253.962C126.279 250.018 115.096 250.018 108.26 253.962C101.424 257.905 101.424 264.362 108.26 268.306C115.096 272.25 126.279 272.25 133.115 268.306C139.951 264.362 139.951 257.905 133.115 253.962Z" fill="url(#paint14_linear_489_12995)"></path><path d="M129.394 263.908C129.634 263.828 129.715 263.64 129.581 263.507C129.447 263.36 129.139 263.306 128.899 263.386L128.297 263.587L116.538 256.996L117.421 255.847L114.384 253.881C114.183 253.761 113.876 253.748 113.675 253.855C113.474 253.962 113.461 254.149 113.662 254.283L116.23 255.94L111.508 262.076L112.203 262.464C112.203 262.464 112.297 262.504 112.351 262.517C111.976 262.945 112.11 263.493 112.752 263.854C113.381 264.202 114.304 264.255 114.986 264.001C115.013 264.015 115.026 264.041 115.053 264.055L117.046 265.164C117.046 265.164 117.113 265.191 117.14 265.205C116.779 265.632 116.912 266.18 117.541 266.528C118.183 266.889 119.106 266.929 119.789 266.675C119.815 266.715 119.855 266.742 119.909 266.769L120.471 267.089C120.671 267.21 120.993 267.196 121.18 267.089C121.367 266.983 121.354 266.782 121.14 266.662L120.578 266.341C120.578 266.341 120.471 266.287 120.404 266.274C120.778 265.846 120.645 265.298 120.016 264.937C119.387 264.59 118.464 264.536 117.782 264.79C117.755 264.777 117.742 264.75 117.715 264.737L115.722 263.627C115.722 263.627 115.668 263.6 115.628 263.587C115.989 263.159 115.856 262.611 115.227 262.263C114.598 261.903 113.662 261.862 112.979 262.116C112.953 262.09 112.926 262.05 112.872 262.023L112.712 261.929L113.581 260.806L122.919 266.033L124.992 265.352C124.992 265.352 125.099 265.325 125.153 265.298L129.394 263.908ZM119.32 265.365C119.668 265.552 119.695 265.873 119.374 266.073C119.066 266.274 118.531 266.274 118.183 266.073C117.835 265.886 117.809 265.565 118.13 265.365C118.437 265.164 118.973 265.164 119.32 265.365ZM114.545 262.691C114.892 262.878 114.919 263.199 114.598 263.4C114.277 263.6 113.755 263.6 113.407 263.4C113.06 263.213 113.033 262.892 113.354 262.691C113.675 262.491 114.197 262.491 114.545 262.691ZM114.892 259.109L115.28 258.614L125.675 264.443L124.885 264.697L114.932 259.122C114.932 259.122 114.906 259.122 114.892 259.109ZM127.374 263.881L126.584 264.135L115.708 258.039L116.083 257.544L127.374 263.868V263.881ZM114.023 260.245L114.464 259.67L123.976 265.004L123.053 265.311L114.023 260.258V260.245Z" fill="white"></path><defs><linearGradient id="paint0_linear_489_12995" x1="144.882" y1="89.9719" x2="218.149" y2="257.409" gradientUnits="userSpaceOnUse"><stop stop-color="#1B5583"></stop><stop offset="0.88" stop-color="#266EA4"></stop><stop offset="1" stop-color="#1B5583"></stop></linearGradient><linearGradient id="paint1_linear_489_12995" x1="47.2978" y1="112.463" x2="78.4195" y2="186.468" gradientUnits="userSpaceOnUse"><stop stop-color="#1B5583"></stop><stop offset="0.88" stop-color="#266EA4"></stop><stop offset="1" stop-color="#1B5583"></stop></linearGradient><linearGradient id="paint2_linear_489_12995" x1="33.4316" y1="144.161" x2="38.7891" y2="160.237" gradientUnits="userSpaceOnUse"><stop stop-color="#46C2AA"></stop><stop offset="1" stop-color="#5BF0A9"></stop></linearGradient><linearGradient id="paint3_linear_489_12995" x1="131.977" y1="30.6905" x2="139.84" y2="23.5823" gradientUnits="userSpaceOnUse"><stop stop-color="#92D5F7"></stop><stop offset="1" stop-color="#59C2F7"></stop></linearGradient><linearGradient id="paint4_linear_489_12995" x1="235.668" y1="267.228" x2="258.79" y2="257.228" gradientUnits="userSpaceOnUse"><stop stop-color="#92D5F7"></stop><stop offset="1" stop-color="#59C2F7"></stop></linearGradient><linearGradient id="paint5_linear_489_12995" x1="276.541" y1="272.007" x2="294.103" y2="266.13" gradientUnits="userSpaceOnUse"><stop stop-color="#92D5F7"></stop><stop offset="1" stop-color="#59C2F7"></stop></linearGradient><linearGradient id="paint6_linear_489_12995" x1="270.808" y1="88.325" x2="356.304" y2="88.325" gradientUnits="userSpaceOnUse"><stop stop-color="#2842A2"></stop><stop offset="0.28" stop-color="#3258B4"></stop><stop offset="0.74" stop-color="#4176CF"></stop><stop offset="1" stop-color="#4782D9"></stop></linearGradient><linearGradient id="paint7_linear_489_12995" x1="298.787" y1="97.9288" x2="313.491" y2="86.1665" gradientUnits="userSpaceOnUse"><stop stop-color="#92D5F7"></stop><stop offset="1" stop-color="#59C2F7"></stop></linearGradient><linearGradient id="paint8_linear_489_12995" x1="324.423" y1="118.858" x2="409.919" y2="118.858" gradientUnits="userSpaceOnUse"><stop stop-color="#2842A2"></stop><stop offset="0.28" stop-color="#3258B4"></stop><stop offset="0.74" stop-color="#4176CF"></stop><stop offset="1" stop-color="#4782D9"></stop></linearGradient><linearGradient id="paint9_linear_489_12995" x1="352.321" y1="129.076" x2="367.105" y2="118.637" gradientUnits="userSpaceOnUse"><stop stop-color="#92D5F7"></stop><stop offset="1" stop-color="#59C2F7"></stop></linearGradient><linearGradient id="paint10_linear_489_12995" x1="188.59" y1="93.009" x2="199.956" y2="90.2501" gradientUnits="userSpaceOnUse"><stop stop-color="#5288AD"></stop><stop offset="1" stop-color="#40677A"></stop></linearGradient><linearGradient id="paint11_linear_489_12995" x1="185.524" y1="93.009" x2="196.882" y2="90.2543" gradientUnits="userSpaceOnUse"><stop stop-color="#92D5F7"></stop><stop offset="1" stop-color="#59C2F7"></stop></linearGradient><linearGradient id="paint12_linear_489_12995" x1="72.787" y1="232.445" x2="79.8007" y2="253.517" gradientUnits="userSpaceOnUse"><stop stop-color="#1E4B43"></stop><stop offset="1" stop-color="#5BF0A9"></stop></linearGradient><linearGradient id="paint13_linear_489_12995" x1="72.7987" y1="230.356" x2="79.8158" y2="251.417" gradientUnits="userSpaceOnUse"><stop stop-color="#46C2AA"></stop><stop offset="1" stop-color="#5BF0A9"></stop></linearGradient><linearGradient id="paint14_linear_489_12995" x1="119.633" y1="259.567" x2="140.042" y2="291.28" gradientUnits="userSpaceOnUse"><stop stop-color="#FFC31B"></stop><stop offset="1" stop-color="#FFEBB3"></stop></linearGradient></defs></svg>