<?xml version="1.0" encoding="UTF-8" standalone="no"?>
<!DOCTYPE svg PUBLIC "-//W3C//DTD SVG 1.1//EN" "http://www.w3.org/Graphics/SVG/1.1/DTD/svg11.dtd">
<svg width="100%" height="100%" viewBox="0 0 413 322" version="1.1" xmlns="http://www.w3.org/2000/svg" xmlns:xlink="http://www.w3.org/1999/xlink" xml:space="preserve" xmlns:serif="http://www.serif.com/" style="fill-rule:evenodd;clip-rule:evenodd;stroke-linejoin:round;stroke-miterlimit:2;">
    <path d="M194.969,282.872C199.503,285.977 203.848,289.407 207.992,293.262L208,293.267L16.415,83.811C15.947,84.603 15.501,85.396 15.062,86.193L194.953,282.863L194.969,282.872Z" style="fill:rgb(241,159,0);fill-rule:nonzero;"/>
    <path d="M233.794,312.775C231.506,311.746 229.276,310.6 227.085,309.291L18.151,80.88C18.626,80.114 19.096,79.356 19.587,78.599L233.794,312.775Z" style="fill:rgb(241,159,0);fill-rule:nonzero;"/>
    <path d="M245.417,316.803L245.433,316.807L245.428,316.815L245.417,316.803Z" style="fill:rgb(241,159,0);fill-rule:nonzero;"/>
    <path d="M245.417,316.803C243.792,316.383 242.19,315.922 240.621,315.405L21.433,75.786C21.928,75.042 22.439,74.307 22.953,73.585L245.417,316.803Z" style="fill:rgb(241,159,0);fill-rule:nonzero;"/>
    <path d="M255.223,318.81C253.799,318.594 252.409,318.355 251.039,318.084L24.902,70.876C25.428,70.172 25.953,69.468 26.5,68.765L255.223,318.81Z" style="fill:rgb(241,159,0);fill-rule:nonzero;"/>
    <path d="M264.141,319.879L264.154,319.88L264.15,319.888L264.141,319.879Z" style="fill:rgb(241,159,0);fill-rule:nonzero;"/>
    <path d="M264.141,319.879C262.829,319.758 261.542,319.631 260.265,319.487L28.541,66.161C29.086,65.479 29.64,64.801 30.202,64.129L264.141,319.879Z" style="fill:rgb(241,159,0);fill-rule:nonzero;"/>
    <path d="M272.629,320.461C271.376,320.398 270.136,320.332 268.913,320.255L32.351,61.632C32.924,60.977 33.505,60.326 34.087,59.676L271.474,319.197L272.637,320.465L272.629,320.461Z" style="fill:rgb(241,159,0);fill-rule:nonzero;"/>
    <path d="M280.843,320.755L280.856,320.755L280.851,320.764L280.843,320.755Z" style="fill:rgb(241,159,0);fill-rule:nonzero;"/>
    <path d="M280.843,320.755C279.63,320.724 278.418,320.694 277.235,320.648L36.337,57.301L36.305,57.282C36.911,56.645 37.512,56.017 38.121,55.394L38.25,55.544L280.843,320.755Z" style="fill:rgb(241,159,0);fill-rule:nonzero;"/>
    <path d="M288.806,320.752L288.786,320.752L42.58,51.587L42.324,51.298C41.692,51.887 41.063,52.488 40.443,53.094L40.664,53.33L285.284,320.755L288.786,320.752L288.805,320.773L288.806,320.752Z" style="fill:rgb(241,159,0);fill-rule:nonzero;"/>
    <path d="M296.92,320.941L296.926,320.941L46.912,47.606L46.671,47.348C46.019,47.914 45.362,48.489 44.722,49.072L44.986,49.366L293.269,320.802C294.48,320.854 295.696,320.897 296.912,320.94L296.92,320.941Z" style="fill:rgb(241,159,0);fill-rule:nonzero;"/>
    <path d="M305.086,321.169C303.889,321.16 302.701,321.135 301.497,321.101L49.321,45.413L49.167,45.248C49.835,44.691 50.507,44.147 51.191,43.599L51.239,43.648L305.078,321.164L305.086,321.169Z" style="fill:rgb(241,159,0);fill-rule:nonzero;"/>
    <path d="M309.496,321.146C310.644,321.126 311.785,321.102 312.923,321.044L312.915,321.039L55.865,40.023L55.863,40.024C55.164,40.541 54.465,41.057 53.774,41.579L309.496,321.146Z" style="fill:rgb(241,159,0);fill-rule:nonzero;"/>
    <path d="M320.338,320.461C319.284,320.578 318.206,320.682 317.099,320.78L58.552,38.097C59.267,37.589 59.994,37.099 60.721,36.609L320.334,320.448L320.338,320.461Z" style="fill:rgb(241,159,0);fill-rule:nonzero;"/>
    <path d="M327.332,319.422L327.342,319.42L327.337,319.428L327.332,319.422Z" style="fill:rgb(241,159,0);fill-rule:nonzero;"/>
    <path d="M327.332,319.422C326.336,319.614 325.32,319.783 324.289,319.944L63.493,34.814C64.24,34.346 64.987,33.878 65.745,33.427L327.332,319.422Z" style="fill:rgb(241,159,0);fill-rule:nonzero;"/>
    <path d="M333.91,317.904C332.978,318.167 332.026,318.409 331.05,318.636L68.617,31.727C69.392,31.286 70.174,30.849 70.953,30.421L333.918,317.908L333.91,317.904Z" style="fill:rgb(241,159,0);fill-rule:nonzero;"/>
    <path d="M337.373,316.858C338.283,316.56 339.167,316.247 340.032,315.912L340.024,315.907L76.337,27.624C75.523,28.021 74.725,28.427 73.923,28.841L337.373,316.858Z" style="fill:rgb(241,159,0);fill-rule:nonzero;"/>
    <path d="M345.708,313.415C344.91,313.821 344.092,314.205 343.246,314.583L79.445,26.159C80.271,25.779 81.113,25.409 81.95,25.048L345.704,313.402L345.708,313.415Z" style="fill:rgb(241,159,0);fill-rule:nonzero;"/>
    <path d="M350.898,310.404L350.903,310.401L350.906,310.413L350.898,310.404Z" style="fill:rgb(241,159,0);fill-rule:nonzero;"/>
    <path d="M350.898,310.404C350.177,310.885 349.424,311.347 348.662,311.805L85.16,23.726C86.03,23.383 86.895,23.048 87.763,22.726L350.898,310.404Z" style="fill:rgb(241,159,0);fill-rule:nonzero;"/>
    <path d="M355.611,306.858C354.951,307.419 354.279,307.963 353.583,308.493L91.108,21.527C92.013,21.215 92.909,20.92 93.822,20.634L355.616,306.849L355.611,306.858Z" style="fill:rgb(241,159,0);fill-rule:nonzero;"/>
    <path d="M358.015,304.649C358.636,304.043 359.242,303.407 359.818,302.764L359.826,302.769L100.126,18.857C99.174,19.098 98.225,19.353 97.285,19.612L358.015,304.649Z" style="fill:rgb(241,159,0);fill-rule:nonzero;"/>
    <path d="M361.947,300.242L103.79,17.99C104.769,17.776 105.765,17.571 106.751,17.382L363.522,298.096C363.024,298.827 362.498,299.531 361.951,300.234L361.947,300.242Z" style="fill:rgb(241,159,0);fill-rule:nonzero;"/>
    <path d="M365.341,295.265L365.336,295.274C365.804,294.482 366.256,293.681 366.67,292.869L113.678,16.286C112.641,16.414 111.597,16.57 110.562,16.73L365.341,295.265Z" style="fill:rgb(241,159,0);fill-rule:nonzero;"/>
    <path d="M368.201,289.688L368.193,289.679C368.568,288.806 368.935,287.928 369.273,287.024L120.998,15.592C120.294,15.63 119.585,15.676 118.88,15.734C118.568,15.756 118.244,15.786 117.925,15.816L117.705,15.836L368.193,289.679L368.188,289.691L368.201,289.688Z" style="fill:rgb(241,159,0);fill-rule:nonzero;"/>
    <path d="M370.481,283.502L370.489,283.511L370.476,283.514L370.481,283.502Z" style="fill:rgb(241,159,0);fill-rule:nonzero;"/>
    <path d="M370.481,283.502L125.286,15.445C126.476,15.429 127.653,15.436 128.828,15.464L371.317,280.576C371.061,281.561 370.785,282.544 370.481,283.502Z" style="fill:rgb(241,159,0);fill-rule:nonzero;"/>
    <path d="M372.225,276.712L133.482,15.692C134.779,15.791 136.07,15.918 137.344,16.058L372.802,273.48C372.627,274.571 372.432,275.639 372.221,276.699L372.225,276.712Z" style="fill:rgb(241,159,0);fill-rule:nonzero;"/>
    <path d="M373.372,269.27C373.501,268.109 373.609,266.947 373.692,265.77L146.752,17.666C145.321,17.349 143.893,17.066 142.445,16.815L373.372,269.27Z" style="fill:rgb(241,159,0);fill-rule:nonzero;"/>
    <path d="M373.936,261.199L152.521,19.134C154.187,19.608 155.837,20.127 157.463,20.687L374,257.411C373.999,258.689 373.981,259.957 373.944,261.204L373.936,261.199Z" style="fill:rgb(241,159,0);fill-rule:nonzero;"/>
    <path d="M373.898,252.465C373.853,251.117 373.784,249.755 373.702,248.397L170.215,25.936C168.25,24.986 166.253,24.093 164.235,23.253L373.898,252.465Z" style="fill:rgb(241,159,0);fill-rule:nonzero;"/>
    <path d="M373.284,243.102L178.805,30.48C180.841,31.68 182.881,33.005 184.951,34.35C185.691,34.831 186.436,35.314 187.185,35.795L372.827,238.753C373.004,240.21 373.152,241.661 373.287,243.115L373.284,243.102Z" style="fill:rgb(241,159,0);fill-rule:nonzero;"/>
    <path d="M372.093,233.099L372.097,233.091C371.875,231.543 371.648,230.003 371.388,228.466L371.037,228.079L202.247,43.551C200.321,42.927 198.451,42.151 196.638,41.277L372.093,233.099Z" style="fill:rgb(241,159,0);fill-rule:nonzero;"/>
    <path d="M370.365,222.524L207.853,44.871C208.995,45.032 210.153,45.127 211.341,45.152C211.366,45.152 211.391,45.153 211.417,45.154L211.418,45.154C211.492,45.156 211.569,45.158 211.644,45.153L369.451,217.673C369.766,219.285 370.076,220.905 370.374,222.529L370.365,222.524Z" style="fill:rgb(241,159,0);fill-rule:nonzero;"/>
    <path d="M368.151,211.393L368.169,211.412L368.156,211.416L368.151,211.393Z" style="fill:rgb(241,159,0);fill-rule:nonzero;"/>
    <path d="M368.151,211.393L215.859,44.906C216.879,44.79 217.906,44.625 218.928,44.412L367.065,206.364C367.434,208.023 367.798,209.69 368.151,211.393Z" style="fill:rgb(241,159,0);fill-rule:nonzero;"/>
    <path d="M365.6,199.933L365.591,199.923C365.231,198.377 364.871,196.847 364.515,195.337L364.374,194.739L225.268,42.661C224.363,42.972 223.458,43.263 222.539,43.523L365.591,199.923L365.592,199.928L365.6,199.933Z" style="fill:rgb(241,159,0);fill-rule:nonzero;"/>
    <path d="M362.822,188.196L362.83,188.2C362.403,186.426 361.994,184.695 361.604,183.007L231.111,40.344C230.264,40.722 229.419,41.079 228.57,41.423L362.822,188.196Z" style="fill:rgb(241,159,0);fill-rule:nonzero;"/>
    <path d="M360.139,176.555L234.213,38.891C235.027,38.494 235.833,38.093 236.631,37.686L359.079,171.544C359.399,173.148 359.752,174.825 360.139,176.555Z" style="fill:rgb(241,159,0);fill-rule:nonzero;"/>
    <path d="M357.995,165.523L358.002,165.53L357.997,165.539L357.995,165.523Z" style="fill:rgb(241,159,0);fill-rule:nonzero;"/>
    <path d="M357.995,165.523L355.489,162.79L239.623,36.125C240.311,35.762 240.996,35.39 241.669,35.024L241.68,35.018L241.693,35.011L241.982,34.853L357.406,161.047L357.56,161.212C357.644,162.728 357.784,164.169 357.995,165.523Z" style="fill:rgb(241,159,0);fill-rule:nonzero;"/>
    <path d="M357.453,156.239L244.943,33.234C245.731,32.789 246.509,32.361 247.287,31.933L357.564,152.5C357.5,153.774 357.463,155.021 357.457,156.231L357.453,156.239Z" style="fill:rgb(241,159,0);fill-rule:nonzero;"/>
    <path d="M357.846,147.98L357.85,147.972C357.941,146.821 358.04,145.654 358.167,144.459L252.613,29.068L252.288,29.238C251.607,29.592 250.921,29.955 250.23,30.325L357.846,147.98Z" style="fill:rgb(241,159,0);fill-rule:nonzero;"/>
    <path d="M358.631,140.147L255.607,27.505C255.744,27.434 255.88,27.363 256.016,27.293L256.517,27.032C257.012,26.774 257.506,26.517 258.002,26.265L359.059,136.742C358.906,137.889 358.762,139.019 358.628,140.134L358.631,140.147Z" style="fill:rgb(241,159,0);fill-rule:nonzero;"/>
    <path d="M359.638,132.547L359.646,132.551C359.8,131.459 359.963,130.351 360.131,129.234L263.448,23.526C262.642,23.928 261.831,24.337 261.034,24.744L359.638,132.547Z" style="fill:rgb(241,159,0);fill-rule:nonzero;"/>
    <path d="M360.754,125.082L360.743,125.071C360.917,123.985 361.091,122.898 361.262,121.8L268.909,20.824C268.638,20.956 268.365,21.088 268.093,21.22L268.088,21.223C267.545,21.485 267.002,21.748 266.467,22.015L360.743,125.071L360.741,125.085L360.754,125.082Z" style="fill:rgb(241,159,0);fill-rule:nonzero;"/>
    <path d="M361.936,117.682L361.939,117.685L361.934,117.693L361.936,117.682Z" style="fill:rgb(241,159,0);fill-rule:nonzero;"/>
    <path d="M361.936,117.682L272.01,19.376C272.828,18.992 273.658,18.605 274.492,18.23L362.471,114.417C362.422,114.719 362.373,115.02 362.324,115.321L362.324,115.324C362.195,116.113 362.068,116.898 361.936,117.682Z" style="fill:rgb(241,159,0);fill-rule:nonzero;"/>
    <path d="M363.133,110.291L277.641,16.831C278.483,16.461 279.328,16.104 280.182,15.751L363.666,107.023C363.486,108.122 363.311,109.213 363.136,110.304L363.133,110.291Z" style="fill:rgb(241,159,0);fill-rule:nonzero;"/>
    <path d="M364.316,102.892L364.321,102.884C364.492,101.781 364.664,100.677 364.83,99.581L286.023,13.436C285.155,13.759 284.277,14.097 283.415,14.445L364.316,102.892Z" style="fill:rgb(241,159,0);fill-rule:nonzero;"/>
    <path d="M365.443,95.423L289.346,12.22C290.243,11.904 291.14,11.608 292.044,11.318L365.921,92.081L365.919,92.098L365.918,92.104C365.764,93.209 365.61,94.315 365.448,95.415L365.443,95.423Z" style="fill:rgb(241,159,0);fill-rule:nonzero;"/>
    <path d="M366.475,87.861L366.477,87.849L366.477,87.848C366.62,86.722 366.763,85.596 366.894,84.473L298.294,9.466C297.358,9.717 296.418,9.976 295.489,10.252L366.475,87.861Z" style="fill:rgb(241,159,0);fill-rule:nonzero;"/>
    <path d="M367.384,80.154L367.381,80.15C367.501,78.988 367.616,77.835 367.727,76.689L304.861,7.961C303.866,8.146 302.886,8.36 301.91,8.588L363.523,75.941L367.381,80.15L367.38,80.162L367.384,80.154Z" style="fill:rgb(241,159,0);fill-rule:nonzero;"/>
    <path d="M367.848,71.976L368.092,72.247L368.089,72.234C368.178,71.029 368.25,69.835 368.322,68.641L311.777,6.825C311.218,6.893 310.663,6.973 310.099,7.048C309.616,7.116 309.141,7.189 308.661,7.269L367.848,71.976Z" style="fill:rgb(241,159,0);fill-rule:nonzero;"/>
    <path d="M368.531,64.03L315.804,6.39C316.924,6.289 318.021,6.207 319.11,6.142L368.607,60.259C368.599,61.512 368.578,62.767 368.539,64.035L368.531,64.03Z" style="fill:rgb(241,159,0);fill-rule:nonzero;"/>
    <path d="M368.547,55.356L368.552,55.362L368.547,55.37L368.547,55.356Z" style="fill:rgb(241,159,0);fill-rule:nonzero;"/>
    <path d="M368.547,55.356L323.392,6.003C324.611,5.992 325.812,6.013 326.965,6.061L368.362,51.319C368.445,52.652 368.503,53.992 368.547,55.356Z" style="fill:rgb(241,159,0);fill-rule:nonzero;"/>
    <path d="M367.891,45.943L331.719,6.4C333.127,6.552 334.493,6.756 335.797,7.01L367.217,41.35C367.481,42.846 367.707,44.385 367.891,45.943Z" style="fill:rgb(241,159,0);fill-rule:nonzero;"/>
    <path d="M365.752,34.925L365.743,34.914C365.126,32.739 364.403,30.655 363.548,28.668L347.478,11.1L347.138,10.73C345.413,9.854 343.542,9.098 341.538,8.461L365.743,34.914L365.744,34.92L365.752,34.925Z" style="fill:rgb(241,159,0);fill-rule:nonzero;"/>
    <path d="M184.829,276.627C182.609,275.389 180.351,274.215 178.062,273.078L12.174,91.721C12.577,90.892 12.993,90.059 13.425,89.236L184.829,276.627Z" style="fill:rgb(241,159,0);fill-rule:nonzero;"/>
    <path d="M164.644,267.123C166.568,267.898 168.479,268.697 170.362,269.525L170.367,269.517L10.652,94.899C10.251,95.762 9.871,96.626 9.499,97.495L164.644,267.123Z" style="fill:rgb(241,159,0);fill-rule:nonzero;"/>
    <path d="M157.791,264.466L157.774,264.459L157.657,264.323L8.112,100.832C7.742,101.735 7.394,102.639 7.066,103.544L152.518,262.548C154.282,263.178 156.032,263.81 157.774,264.459L157.786,264.474L157.791,264.466Z" style="fill:rgb(241,159,0);fill-rule:nonzero;"/>
    <path d="M143.132,259.342C144.109,259.666 145.081,259.989 146.053,260.319L5.843,107.039C5.525,107.983 5.219,108.944 4.931,109.894L140.977,258.624C141.698,258.866 142.416,259.104 143.132,259.342Z" style="fill:rgb(241,159,0);fill-rule:nonzero;"/>
    <path d="M134.677,256.568L134.642,256.557L3.871,113.584C3.613,114.594 3.359,115.596 3.122,116.608L129.679,254.961C130.847,255.333 132.012,255.709 133.171,256.083L133.179,256.085L133.188,256.088L133.237,256.104C133.706,256.255 134.175,256.407 134.642,256.557L134.667,256.584L134.677,256.568Z" style="fill:rgb(241,159,0);fill-rule:nonzero;"/>
    <path d="M123.373,252.93L123.385,252.933L123.388,252.946L123.373,252.93Z" style="fill:rgb(241,159,0);fill-rule:nonzero;"/>
    <path d="M123.373,252.93C121.712,252.391 120.042,251.848 118.373,251.304L118.36,251.3L1.702,123.754C1.867,122.68 2.058,121.598 2.274,120.531L123.373,252.93Z" style="fill:rgb(241,159,0);fill-rule:nonzero;"/>
    <path d="M111.967,249.144C110.242,248.549 108.513,247.941 106.781,247.32L0.801,131.466C0.888,130.303 0.996,129.141 1.137,127.976L111.967,249.144Z" style="fill:rgb(241,159,0);fill-rule:nonzero;"/>
    <path d="M94.621,242.707C96.43,243.438 98.27,244.153 100.099,244.851L100.095,244.838L0.576,136.03C0.537,137.318 0.536,138.596 0.552,139.863L94.514,242.591L94.621,242.707Z" style="fill:rgb(241,159,0);fill-rule:nonzero;"/>
    <path d="M87.475,239.751C85.496,238.901 83.518,238.03 81.559,237.127L1.174,149.248C1,147.825 0.863,146.392 0.757,144.943L87.483,239.756L87.475,239.751Z" style="fill:rgb(241,159,0);fill-rule:nonzero;"/>
    <path d="M67.054,229.966C69.236,231.14 71.466,232.286 73.711,233.388L2.081,155.093C2.414,156.824 2.8,158.52 3.245,160.207L67.054,229.966Z" style="fill:rgb(241,159,0);fill-rule:nonzero;"/>
    <path d="M57.844,224.736C54.956,223.003 52.126,221.207 49.388,219.345L8.476,174.616C7.387,172.319 6.407,169.965 5.539,167.546L57.849,224.728L57.844,224.736Z" style="fill:rgb(241,159,0);fill-rule:nonzero;"/>
    <path d="M34.656,208.086C27.622,201.977 21.412,195.304 16.274,187.992L34.656,208.086Z" style="fill:rgb(241,159,0);fill-rule:nonzero;"/>
    <path d="M62.773,189.711L62.773,186.529L232.749,86.761C235.946,84.916 239.692,83.793 242.889,85.638L332.131,136.839C332.987,137.333 333.67,138.055 334.098,138.951L334.593,139.98C336.479,143.87 335.048,148.563 331.302,150.715L164.457,246.941C161.259,248.786 156.042,248.786 152.858,246.941L67.469,197.825C64.566,196.154 62.787,193.066 62.787,189.724L62.773,189.711Z" style="fill:url(#_Linear1);fill-rule:nonzero;"/>
    <path d="M65.171,188.976C61.974,187.131 61.974,184.123 65.171,182.278L232.284,85.865C235.482,84.02 240.699,84.02 243.883,85.865L331.573,136.451C334.77,138.296 334.77,141.304 331.573,143.149L164.46,239.562C161.263,241.406 156.045,241.406 152.861,239.562L65.171,188.976Z" style="fill:rgb(247,247,247);fill-rule:nonzero;"/>
    <path d="M85.305,176.931L223.509,96.653L311.801,147.6L173.597,227.878L85.305,176.931Z" style="fill:white;fill-rule:nonzero;"/>
    <path d="M287.638,124.246C287.41,124.246 287.183,124.192 286.982,124.072L264.04,110.837C263.411,110.476 263.197,109.674 263.558,109.033C263.919,108.391 264.722,108.19 265.364,108.551L288.307,121.786C288.936,122.147 289.15,122.949 288.788,123.591C288.548,124.019 288.106,124.246 287.651,124.246L287.638,124.246Z" style="fill:rgb(160,48,254);fill-rule:nonzero;"/>
    <path d="M111.577,212.812C107.631,210.539 107.631,206.809 111.577,204.537C115.523,202.264 121.971,202.264 125.918,204.537C129.864,206.809 129.864,210.539 125.918,212.812C121.971,215.084 115.523,215.084 111.577,212.812Z" style="fill:rgb(230,231,232);fill-rule:nonzero;"/>
    <path d="M205.5,73.018L213.794,75.171L219.72,69.436L222.249,92.656L205.5,92.095L205.5,73.018Z" style="fill:rgb(160,48,254);fill-rule:nonzero;"/>
    <path d="M219.719,69.436L226.528,134.78L268.801,159.178L261.537,94.314L219.719,69.436Z" style="fill:rgb(96,6,140);fill-rule:nonzero;"/>
    <path d="M205.5,73.019L205.5,146.184L247.773,170.581L247.773,97.403L205.5,73.019Z" style="fill:rgb(160,48,254);fill-rule:nonzero;"/>
    <path d="M247.773,97.403L251.706,94.315L261.539,94.315L268.803,159.178L258.342,162.747L247.773,170.581L247.773,97.403Z" style="fill:rgb(106,55,130);fill-rule:nonzero;"/>
    <path d="M213.409,90.491C212.553,89.997 211.844,90.398 211.844,91.387C211.844,92.376 212.539,93.593 213.409,94.087C214.265,94.582 214.974,94.181 214.974,93.192C214.974,92.202 214.278,90.986 213.409,90.491Z" style="fill:rgb(191,145,5);fill-rule:nonzero;"/>
    <path d="M236.253,103.806C235.397,103.311 234.688,103.712 234.688,104.701C234.688,105.691 235.383,106.907 236.253,107.402C237.109,107.896 237.818,107.495 237.818,106.506C237.818,105.517 237.122,104.3 236.253,103.806Z" style="fill:rgb(191,145,5);fill-rule:nonzero;"/>
    <path d="M228.414,127.294C226.942,127.294 225.484,126.906 224.147,126.131C217.083,122.054 212.695,114.46 212.695,106.306L212.695,92.295C212.695,91.908 213.016,91.587 213.404,91.587C213.792,91.587 214.113,91.908 214.113,92.295L214.113,106.306C214.113,113.952 218.234,121.078 224.856,124.901C227.09,126.184 229.738,126.184 231.972,124.901C234.206,123.618 235.531,121.318 235.531,118.738L235.531,105.597C235.531,105.209 235.852,104.888 236.24,104.888C236.628,104.888 236.949,105.209 236.949,105.597L236.949,118.738C236.949,121.826 235.357,124.594 232.681,126.131C231.344,126.906 229.872,127.294 228.414,127.294Z" style="fill:rgb(255,195,28);fill-rule:nonzero;"/>
    <path d="M13.311,159.205C10.89,157.814 10.903,155.528 13.311,154.138L79.731,115.838C82.152,114.447 86.099,114.447 88.52,115.838L124.198,136.425C126.619,137.815 126.619,140.101 124.198,141.492L57.778,179.792C55.357,181.182 51.41,181.182 49.002,179.792" style="fill:rgb(53,77,167);fill-opacity:0.94;fill-rule:nonzero;"/>
    <path d="M13.486,159.151C11.078,157.761 11.078,155.488 13.486,154.112L79.625,115.971C82.033,114.581 85.966,114.581 88.373,115.971L123.904,136.479C126.312,137.869 126.312,140.142 123.904,141.518L57.766,179.659C55.358,181.049 51.425,181.049 49.017,179.659L13.486,159.151Z" style="fill:rgb(48,73,166);fill-opacity:0.96;fill-rule:nonzero;"/>
    <path d="M13.655,159.111C11.261,157.734 11.261,155.475 13.655,154.085L79.527,116.105C81.921,114.728 85.841,114.728 88.235,116.105L123.619,136.519C126.014,137.895 126.014,140.155 123.619,141.545L57.748,179.525C55.353,180.902 51.434,180.902 49.039,179.525L13.655,159.111Z" style="fill:rgb(44,70,164);fill-opacity:0.98;fill-rule:nonzero;"/>
    <path d="M13.833,159.058C11.452,157.681 11.452,155.435 13.833,154.058L79.437,116.239C81.818,114.862 85.724,114.862 88.105,116.239L123.342,136.572C125.723,137.949 125.723,140.195 123.342,141.572L57.738,179.391C55.357,180.768 51.451,180.768 49.069,179.391L13.833,159.058Z" style="fill:rgb(160,48,254);fill-rule:nonzero;"/>
    <path d="M10,155.247L10,152.748C10,152.748 10.642,153.483 11.953,152.721L83.804,111.292C86.413,109.782 90.694,109.782 93.302,111.292L131.897,133.564C133.007,134.206 133.689,132.588 133.85,133.43L133.85,136.117C133.85,137.227 133.261,138.243 132.298,138.791L60.032,180.46C57.424,181.971 53.143,181.971 50.534,180.46L11.512,157.868C10.575,157.333 10,156.33 10,155.247Z" style="fill:url(#_Linear2);fill-rule:nonzero;"/>
    <path d="M11.957,155.448C9.348,153.937 9.348,151.478 11.957,149.967L83.808,108.538C86.416,107.028 90.697,107.028 93.306,108.538L131.9,130.81C134.509,132.321 134.509,134.78 131.9,136.291L60.049,177.72C57.44,179.23 53.16,179.23 50.551,177.72L11.957,155.448Z" style="fill:rgb(241,242,242);fill-rule:nonzero;"/>
    <path d="M30.647,156.331C25.43,153.323 25.43,148.403 30.647,145.382C35.865,142.374 44.4,142.374 49.617,145.382C54.834,148.39 54.834,153.309 49.617,156.331C44.4,159.352 35.865,159.339 30.647,156.331Z" style="fill:url(#_Linear3);fill-rule:nonzero;"/>
    <path d="M42.805,154.418L36.464,154.204C35.862,154.191 35.381,153.683 35.407,153.068C35.421,152.466 35.956,151.998 36.544,152.012L40.892,152.159L41.735,145.729C41.815,145.127 42.364,144.713 42.966,144.78C43.568,144.86 43.996,145.408 43.916,146.009L42.805,154.418Z" style="fill:white;fill-rule:nonzero;"/>
    <path d="M48.289,140.329L53.038,143.136L96.315,118.164L91.512,115.396L48.289,140.329Z" style="fill:white;fill-rule:nonzero;"/>
    <path d="M57.758,145.943L62.493,148.75L105.77,123.778L100.967,121.011L57.758,145.943Z" style="fill:white;fill-rule:nonzero;"/>
    <path d="M43.758,164.793L48.507,167.6L115.234,129.407L110.432,126.626L43.758,164.793Z" style="fill:white;fill-rule:nonzero;"/>
    <path d="M53.227,170.421L57.962,173.215L124.703,135.021L119.9,132.254L53.227,170.421Z" style="fill:white;fill-rule:nonzero;"/>
    <path d="M220.978,122.267L216.322,119.741L205.5,113.484L205.5,146.183L233.713,162.466L233.713,129.767L220.844,122.348L220.978,122.267Z" style="fill:rgb(35,31,32);fill-opacity:0.3;fill-rule:nonzero;"/>
    <path d="M164.82,132.44L197.261,113.725L229.702,132.44L197.261,151.156L164.82,132.44Z" style="fill:white;fill-rule:nonzero;"/>
    <path d="M164.82,132.44L164.82,169.872L197.261,188.601L197.261,151.156L164.82,132.44Z" style="fill:rgb(241,242,242);fill-rule:nonzero;"/>
    <path d="M197.258,188.601L229.698,169.872L229.698,132.44L197.258,151.156L197.258,188.601Z" style="fill:rgb(230,231,232);fill-rule:nonzero;"/>
    <path d="M177.797,177.372L177.797,139.927L184.285,143.67L184.285,181.115L177.797,177.372Z" style="fill:rgb(160,48,254);fill-rule:nonzero;"/>
    <path d="M177.797,139.927L210.251,121.291L216.966,124.941L184.285,143.67L177.797,139.927Z" style="fill:rgb(160,48,254);fill-rule:nonzero;"/>
    <path d="M178.094,124.781L210.24,143.67L216.675,139.807L184.676,120.931L178.094,124.781Z" style="fill:rgb(160,48,254);fill-rule:nonzero;"/>
    <path d="M210.234,143.67L210.234,181.115L216.669,177.399L216.669,139.807L210.234,143.67Z" style="fill:rgb(160,48,254);fill-rule:nonzero;"/>
    <path d="M214.454,131.852C211.872,130.288 208.836,129.62 205.826,129.941L199.886,130.596L194.977,133.096L208.327,140.328L214.347,137.467C216.541,136.264 216.608,133.149 214.468,131.852L214.454,131.852Z" style="fill:rgb(160,48,254);fill-rule:nonzero;"/>
    <path d="M197.597,125.088C196.446,122.294 194.386,119.954 191.777,118.443C190.814,117.895 189.757,117.895 188.861,118.283L188.754,118.337C188.674,118.377 188.594,118.417 188.513,118.457L183.523,121.01L194.975,133.109L199.884,130.609L197.597,125.088Z" style="fill:rgb(160,48,254);fill-rule:nonzero;"/>
    <path d="M194.976,133.109L183.619,126.558C182.615,125.984 182,124.914 182,123.751C182,121.251 184.702,119.7 186.869,120.944C189.491,122.454 191.538,124.794 192.689,127.588L194.976,133.109Z" style="fill:rgb(255,235,116);fill-rule:nonzero;"/>
    <path d="M194.976,133.109L183.619,126.558C182.615,125.984 182,124.914 182,123.751C182,121.251 184.702,119.7 186.869,120.944C189.491,122.454 191.538,124.794 192.689,127.588L194.976,133.109Z" style="fill:url(#_Linear4);fill-rule:nonzero;"/>
    <path d="M183.827,126.171C182.957,125.676 182.422,124.741 182.422,123.738C182.422,122 183.88,120.931 185.231,120.931C185.726,120.931 186.194,121.064 186.622,121.305C187.702,121.927 188.683,122.7 189.542,123.591C189.981,124.047 190.388,124.534 190.759,125.047C191.362,125.88 191.869,126.782 192.268,127.735L194.06,132.067L183.827,126.158L183.827,126.171Z" style="fill:rgb(96,6,140);fill-rule:nonzero;"/>
    <path d="M194.977,133.109L206.187,139.9C207.177,140.502 208.421,140.529 209.424,139.967C211.618,138.764 211.685,135.649 209.545,134.352C206.963,132.788 203.926,132.12 200.916,132.441L194.977,133.096L194.977,133.109Z" style="fill:url(#_Linear5);fill-rule:nonzero;"/>
    <path d="M207.869,139.927C207.36,139.927 206.852,139.78 206.41,139.526L196.297,133.403L200.966,132.882C201.447,132.829 201.942,132.802 202.424,132.802C204.859,132.802 207.24,133.47 209.313,134.727C210.183,135.248 210.691,136.171 210.664,137.187C210.638,138.203 210.103,139.098 209.206,139.58C208.792,139.807 208.323,139.927 207.855,139.927L207.869,139.927Z" style="fill:rgb(96,6,140);fill-rule:nonzero;"/>
    <path d="M120.659,129.42C119.91,130.035 119.469,130.944 119.469,131.92L119.469,171.29C119.469,173.856 121.288,177.011 123.509,178.281L185.621,214.242C186.143,214.55 186.785,214.603 187.36,214.403C189.808,213.534 191.454,211.208 191.454,208.601L191.454,171.103C191.454,168.536 189.634,165.394 187.414,164.111L126.679,128.952C124.766,127.842 122.372,128.03 120.659,129.42Z" style="fill:rgb(160,48,254);fill-rule:nonzero;"/>
    <path d="M123.509,130.717C121.288,129.433 119.469,130.489 119.469,133.043L119.469,171.611C119.469,174.177 121.288,177.319 123.509,178.602L184.618,213.855C186.838,215.138 188.658,214.082 188.658,211.529L188.658,172.961C188.658,170.394 186.838,167.253 184.618,165.969L123.509,130.717Z" style="fill:rgb(160,48,254);fill-rule:nonzero;"/>
    <path d="M184.619,165.969L123.51,130.717C122.547,130.169 121.664,130.048 120.969,130.289L144.861,169.565C147.871,174.512 153.757,176.918 159.376,175.501L187.134,168.482C186.439,167.44 185.569,166.531 184.606,165.969L184.619,165.969Z" style="fill:rgb(96,6,140);fill-rule:nonzero;"/>
    <path d="M189.137,154.512C182.929,150.93 177.859,153.857 177.859,161.023C177.859,168.188 182.929,176.971 189.137,180.554C195.344,184.137 200.414,181.209 200.414,174.043C200.414,166.878 195.344,158.095 189.137,154.512Z" style="fill:rgb(255,195,28);fill-rule:nonzero;"/>
    <path d="M187.129,155.181C180.922,151.598 175.852,154.526 175.852,161.692C175.852,168.857 180.922,177.64 187.129,181.223C193.336,184.806 198.406,181.878 198.406,174.712C198.406,167.547 193.336,158.764 187.129,155.181Z" style="fill:rgb(255,195,28);fill-rule:nonzero;"/>
    <path d="M187.135,159.525C183.002,157.146 179.617,159.098 179.617,163.857C179.617,168.616 183.002,174.471 187.135,176.864C191.269,179.244 194.654,177.292 194.654,172.533C194.654,167.774 191.269,161.918 187.135,159.525Z" style="fill:rgb(255,205,57);fill-rule:nonzero;"/>
    <path d="M190.37,166.33L190.142,167.72L186.798,165.996L186.597,167.199C186.851,167.266 187.146,167.386 187.467,167.547C188.283,167.961 188.952,168.536 189.473,169.258C189.995,169.98 190.196,170.702 190.089,171.41C189.968,172.119 189.58,172.546 188.885,172.694C188.203,172.841 187.413,172.694 186.517,172.226C185.367,171.637 184.47,170.782 183.828,169.659L185.005,169.004C185.072,169.097 185.152,169.231 185.26,169.378C185.367,169.525 185.567,169.766 185.862,170.073C186.156,170.394 186.477,170.621 186.798,170.795C187.119,170.956 187.413,171.022 187.694,170.996C187.975,170.956 188.136,170.782 188.189,170.461C188.243,170.14 188.149,169.819 187.908,169.512C187.667,169.204 187.333,168.924 186.905,168.71C186.477,168.482 185.955,168.362 185.353,168.335L184.684,167.212L185.246,163.71L190.356,166.344L190.37,166.33Z" style="fill:white;fill-rule:nonzero;"/>
    <rect x="135.75" y="28.448" width="1.338" height="81.4" style="fill:rgb(160,48,254);fill-rule:nonzero;"/>
    <path d="M105.247,91.427L103.977,91.132L136.417,24.691L168.871,91.132L167.6,91.427L136.417,27.686L105.247,91.427Z" style="fill:rgb(160,48,254);fill-rule:nonzero;"/>
    <path d="M106.947,43.809L106.867,45.4L132.338,37.419L131.415,33.315L106.947,43.809Z" style="fill:rgb(209,211,212);fill-rule:nonzero;"/>
    <path d="M166.641,43.809L166.721,45.4L141.25,37.419L142.173,33.315L166.641,43.809Z" style="fill:rgb(209,211,212);fill-rule:nonzero;"/>
    <path d="M167.202,17.018L168.527,17.018L170.333,6.671L165.383,6.671L167.202,17.018Z" style="fill:rgb(255,195,28);fill-rule:nonzero;"/>
    <path d="M105.683,17.018L104.358,17.018L102.539,6.671L107.489,6.671L105.683,17.018Z" style="fill:rgb(255,195,28);fill-rule:nonzero;"/>
    <path d="M104.781,10.214L104.781,11.872L124.018,27.272L126.801,24.424L104.781,10.214Z" style="fill:rgb(209,211,212);fill-rule:nonzero;"/>
    <path d="M168.447,10.214L168.447,11.872L149.197,27.272L146.414,24.424L168.447,10.214Z" style="fill:rgb(209,211,212);fill-rule:nonzero;"/>
    <rect x="136.086" y="38.635" width="1.779" height="3.382" style="fill:rgb(188,190,192);fill-rule:nonzero;"/>
    <path d="M123.031,26.189L123.031,35.573L123.098,35.613C131.7,40.573 142.295,40.626 150.937,35.734L150.937,26.697L123.031,26.189Z" style="fill:rgb(209,211,212);fill-rule:nonzero;"/>
    <path d="M104.047,7.687L94.816,13.021L93.305,12.139L98.094,7.674L104.047,6.377L104.047,7.687Z" style="fill:rgb(255,195,28);fill-rule:nonzero;"/>
    <path d="M116.717,1.043L107.473,6.377L105.961,5.508L110.75,1.029L115.513,0L116.717,1.043Z" style="fill:rgb(255,195,28);fill-rule:nonzero;"/>
    <path d="M106.766,5.374C105.803,4.813 104.225,4.813 103.261,5.374C102.298,5.936 102.298,6.845 103.261,7.393C104.225,7.954 105.803,7.954 106.766,7.393C107.73,6.831 107.73,5.922 106.766,5.374Z" style="fill:rgb(160,48,254);fill-rule:nonzero;"/>
    <path d="M106.025,5.869C105.463,5.548 104.554,5.548 103.992,5.869C103.43,6.189 103.43,6.724 103.992,7.045C104.554,7.366 105.463,7.366 106.025,7.045C106.587,6.724 106.587,6.189 106.025,5.869Z" style="fill:rgb(65,64,66);fill-rule:nonzero;"/>
    <path d="M106.025,5.615C105.463,5.294 104.554,5.294 103.992,5.615C103.43,5.936 103.43,6.47 103.992,6.791C104.554,7.112 105.463,7.112 106.025,6.791C106.587,6.47 106.587,5.936 106.025,5.615Z" style="fill:white;fill-rule:nonzero;"/>
    <path d="M168.82,7.687L178.064,13.021L179.576,12.139L174.773,7.674L168.82,6.377L168.82,7.687Z" style="fill:rgb(255,195,28);fill-rule:nonzero;"/>
    <path d="M156.164,1.043L165.395,6.377L166.906,5.508L162.117,1.029L157.355,0L156.164,1.043Z" style="fill:rgb(255,195,28);fill-rule:nonzero;"/>
    <path d="M166.105,5.374C167.068,4.813 168.647,4.813 169.61,5.374C170.573,5.936 170.573,6.845 169.61,7.393C168.647,7.954 167.068,7.954 166.105,7.393C165.142,6.831 165.142,5.922 166.105,5.374Z" style="fill:rgb(160,48,254);fill-rule:nonzero;"/>
    <path d="M166.843,5.869C167.405,5.548 168.315,5.548 168.877,5.869C169.439,6.189 169.439,6.724 168.877,7.045C168.315,7.366 167.405,7.366 166.843,7.045C166.281,6.724 166.281,6.189 166.843,5.869Z" style="fill:rgb(65,64,66);fill-rule:nonzero;"/>
    <path d="M166.843,5.615C167.405,5.294 168.315,5.294 168.877,5.615C169.439,5.936 169.439,6.47 168.877,6.791C168.315,7.112 167.405,7.112 166.843,6.791C166.281,6.47 166.281,5.936 166.843,5.615Z" style="fill:white;fill-rule:nonzero;"/>
    <path d="M146.856,20.494C141.424,17.352 132.528,17.352 127.097,20.494C121.666,23.622 121.666,28.756 127.097,31.897C132.528,35.039 141.424,35.039 146.856,31.897C152.287,28.769 152.287,23.636 146.856,20.494Z" style="fill:rgb(230,231,232);fill-rule:nonzero;"/>
    <path d="M141.867,33.207L166.268,43.809L168.448,42.552L143.566,26.51L141.867,33.207Z" style="fill:rgb(230,231,232);fill-rule:nonzero;"/>
    <path d="M131.416,33.314L106.948,43.809L104.781,42.552L129.65,26.51L131.416,33.314Z" style="fill:rgb(230,231,232);fill-rule:nonzero;"/>
    <path d="M142.992,18.996L166.269,8.97L168.45,10.213L143.567,26.268L142.992,18.996Z" style="fill:rgb(230,231,232);fill-rule:nonzero;"/>
    <path d="M130.921,19.317L106.948,8.97L104.781,10.213L129.65,26.268L130.921,19.317Z" style="fill:rgb(230,231,232);fill-rule:nonzero;"/>
    <path d="M168.925,52.818L167.601,52.818L165.781,42.484L170.731,42.484L168.925,52.818Z" style="fill:rgb(255,195,28);fill-rule:nonzero;"/>
    <path d="M167.31,43.501L158.066,48.821L156.555,47.952L161.344,43.487L167.31,42.19L167.31,43.501Z" style="fill:rgb(255,195,28);fill-rule:nonzero;"/>
    <path d="M179.967,36.857L170.723,42.191L169.211,41.322L174.013,36.844L178.776,35.815L179.967,36.857Z" style="fill:rgb(255,195,28);fill-rule:nonzero;"/>
    <path d="M170.009,41.175C169.045,40.614 167.467,40.614 166.504,41.175C165.54,41.737 165.54,42.646 166.504,43.194C167.467,43.742 169.045,43.755 170.009,43.194C170.972,42.632 170.972,41.723 170.009,41.175Z" style="fill:rgb(160,48,254);fill-rule:nonzero;"/>
    <path d="M169.275,41.683C168.713,41.362 167.804,41.362 167.242,41.683C166.68,42.004 166.68,42.539 167.242,42.859C167.804,43.18 168.713,43.18 169.275,42.859C169.837,42.539 169.837,42.004 169.275,41.683Z" style="fill:rgb(65,64,66);fill-rule:nonzero;"/>
    <path d="M169.275,41.429C168.713,41.108 167.804,41.108 167.242,41.429C166.68,41.75 166.68,42.285 167.242,42.606C167.804,42.926 168.713,42.926 169.275,42.606C169.837,42.285 169.837,41.75 169.275,41.429Z" style="fill:white;fill-rule:nonzero;"/>
    <path d="M104.366,52.818L105.691,52.818L107.497,42.484L102.547,42.484L104.366,52.818Z" style="fill:rgb(255,195,28);fill-rule:nonzero;"/>
    <path d="M105.984,43.501L115.215,48.821L116.727,47.952L111.937,43.487L105.984,42.19L105.984,43.501Z" style="fill:rgb(255,195,28);fill-rule:nonzero;"/>
    <path d="M93.32,36.857L102.564,42.191L104.076,41.322L99.287,36.844L94.524,35.815L93.32,36.857Z" style="fill:rgb(255,195,28);fill-rule:nonzero;"/>
    <path d="M103.269,41.175C104.232,40.614 105.811,40.614 106.774,41.175C107.737,41.737 107.737,42.646 106.774,43.194C105.811,43.742 104.232,43.755 103.269,43.194C102.306,42.632 102.306,41.723 103.269,41.175Z" style="fill:rgb(160,48,254);fill-rule:nonzero;"/>
    <path d="M104.007,41.683C104.569,41.362 105.479,41.362 106.041,41.683C106.603,42.004 106.603,42.539 106.041,42.859C105.479,43.18 104.569,43.18 104.007,42.859C103.445,42.539 103.445,42.004 104.007,41.683Z" style="fill:rgb(65,64,66);fill-rule:nonzero;"/>
    <path d="M104.007,41.429C104.569,41.108 105.479,41.108 106.041,41.429C106.603,41.75 106.603,42.285 106.041,42.606C105.479,42.926 104.569,42.926 104.007,42.606C103.445,42.285 103.445,41.75 104.007,41.429Z" style="fill:white;fill-rule:nonzero;"/>
    <path d="M139.301,43.634C139.301,44.917 138.257,45.947 136.986,45.947C135.715,45.947 134.672,44.904 134.672,43.634C134.672,42.364 135.715,41.321 136.986,41.321C138.257,41.321 139.301,42.364 139.301,43.634Z" style="fill:rgb(230,231,232);fill-rule:nonzero;"/>
    <path d="M138.75,43.635C138.75,44.611 137.961,45.399 136.985,45.399C136.008,45.399 135.219,44.611 135.219,43.635C135.219,42.659 136.008,41.87 136.985,41.87C137.961,41.87 138.75,42.659 138.75,43.635Z" style="fill:white;fill-rule:nonzero;"/>
    <path d="M138.159,43.634C138.159,44.289 137.637,44.811 136.982,44.811C136.326,44.811 135.805,44.276 135.805,43.634C135.805,42.993 136.326,42.458 136.982,42.458C137.637,42.458 138.159,42.979 138.159,43.634Z" style="fill:rgb(71,130,217);fill-rule:nonzero;"/>
    <path d="M137.534,43.634C137.534,43.942 137.28,44.182 136.986,44.182C136.692,44.182 136.438,43.928 136.438,43.634C136.438,43.34 136.692,43.086 136.986,43.086C137.28,43.086 137.534,43.34 137.534,43.634Z" style="fill:rgb(160,48,254);fill-rule:nonzero;"/>
    <path d="M143.976,22.152C140.124,19.933 133.836,19.933 129.983,22.152C126.131,24.371 126.131,28.007 129.983,30.226C133.836,32.445 140.124,32.445 143.976,30.226C147.829,28.007 147.829,24.371 143.976,22.152Z" style="fill:url(#_Linear6);fill-rule:nonzero;"/>
    <rect x="134.133" y="36.041" width="1.498" height="1.377" style="fill:rgb(160,48,254);fill-rule:nonzero;"/>
    <rect x="136.195" y="36.041" width="1.499" height="1.377" style="fill:rgb(255,195,28);fill-rule:nonzero;"/>
    <rect x="138.25" y="36.041" width="1.498" height="1.377" style="fill:rgb(71,130,217);fill-rule:nonzero;"/>
    <path d="M103.977,91.133L136.417,72.417L168.871,91.133L136.417,109.849L103.977,91.133Z" style="fill:rgb(247,247,247);fill-rule:nonzero;"/>
    <path d="M103.977,91.133L103.977,105.17L136.417,123.885L136.417,109.849L103.977,91.133Z" style="fill:rgb(230,231,232);fill-rule:nonzero;"/>
    <path d="M105.484,94.488L105.484,98.031L113.658,102.75L113.658,99.207L105.484,94.488Z" style="fill:white;fill-rule:nonzero;"/>
    <path d="M136.414,123.885L168.868,105.17L168.868,91.133L136.414,109.849L136.414,123.885Z" style="fill:rgb(209,211,212);fill-rule:nonzero;"/>
    <path d="M116.953,112.656L116.953,98.619L123.441,102.362L123.441,116.399L116.953,112.656Z" style="fill:rgb(160,48,254);fill-rule:nonzero;"/>
    <path d="M116.953,98.619L149.421,79.983L156.123,83.62L123.441,102.362L116.953,98.619Z" style="fill:rgb(160,48,254);fill-rule:nonzero;"/>
    <path d="M137.088,109.501L136.419,109.848L135.75,109.461L135.75,65.051L137.088,65.051L137.088,109.501Z" style="fill:rgb(160,48,254);fill-rule:nonzero;"/>
    <path d="M244.969,250.189L277.633,231.376L318.392,254.908L285.728,273.7L244.969,250.189Z" style="fill:rgb(160,48,254);fill-rule:nonzero;"/>
    <path d="M303.944,272.557L283.381,283.587L281.5,255.378L299.631,255.378L299.59,265.898L301.614,266.449L303.944,272.557Z" style="fill:rgb(96,6,140);fill-rule:nonzero;"/>
    <path d="M367.843,235.523L347.524,247.718L345.398,218.364L363.55,218.364L364.47,226.596L365.512,229.415L367.843,235.523Z" style="fill:rgb(96,6,140);fill-rule:nonzero;"/>
    <path d="M340.943,246.88L332.828,242.161L332.828,223.389L340.943,227.556L340.943,246.88Z" style="fill:rgb(96,6,140);fill-rule:nonzero;"/>
    <path d="M346.729,224.88C341.721,227.76 337.633,234.849 337.633,240.609C337.633,246.369 341.721,248.841 346.729,246.063C351.737,243.285 355.825,236.217 355.825,230.334C355.825,224.451 351.737,222 346.729,224.88Z" style="fill:rgb(160,48,254);fill-rule:nonzero;"/>
    <path d="M285.732,289.633L277.617,284.915L277.617,266.143L285.732,270.33L285.732,289.633Z" style="fill:rgb(96,6,140);fill-rule:nonzero;"/>
    <path d="M350.834,251.824L345.192,248.535C343.659,247.636 342.719,246.002 342.719,244.225L342.719,228.312L350.834,232.48L350.834,251.824Z" style="fill:rgb(96,6,140);fill-rule:nonzero;"/>
    <path d="M356.62,229.824C351.612,232.704 347.523,239.792 347.523,245.552C347.523,251.313 351.612,253.784 356.62,251.006C361.628,248.228 365.716,241.161 365.716,235.278C365.716,229.395 361.628,226.943 356.62,229.824Z" style="fill:rgb(160,48,254);fill-rule:nonzero;"/>
    <path d="M356.623,234.623C353.884,236.196 351.656,240.077 351.656,243.223C351.656,246.369 353.884,247.717 356.623,246.205C359.362,244.694 361.591,240.813 361.591,237.606C361.591,234.399 359.362,233.051 356.623,234.623Z" style="fill:white;fill-rule:nonzero;"/>
    <path d="M309.071,222.388L376.996,183.209L328.102,155L260.156,194.158L309.071,222.388Z" style="fill:rgb(241,242,242);fill-rule:nonzero;"/>
    <path d="M309.071,222.388L309.071,260.076L260.156,231.866L260.156,194.158L309.071,222.388Z" style="fill:rgb(209,211,212);fill-rule:nonzero;"/>
    <path d="M309.078,260.075L377.003,220.917L377.003,183.209L309.078,222.388L309.078,260.075Z" style="fill:rgb(230,231,232);fill-rule:nonzero;"/>
    <path d="M309.078,247.043L377.003,208.437L377.003,203.8L309.078,242.386L309.078,247.043Z" style="fill:rgb(160,48,254);fill-rule:nonzero;"/>
    <path d="M309.077,247.003L271.445,225.555L271.445,220.918L309.077,242.346L309.077,247.003Z" style="fill:rgb(160,48,254);fill-rule:nonzero;"/>
    <path d="M224,262.466L224,269.227L267.028,293.984L267.028,287.121L224,262.466Z" style="fill:rgb(209,211,212);fill-rule:nonzero;"/>
    <path d="M267.052,293.985L279.337,287.121L279.337,280.033L267.031,287.121L267.052,293.985Z" style="fill:rgb(241,242,242);fill-rule:nonzero;"/>
    <path d="M226.289,223.532L267.028,247.044L267.028,284.649L226.289,261.138L226.289,223.532Z" style="fill:rgb(160,48,254);fill-rule:nonzero;"/>
    <path d="M226.289,226.27L264.268,248.085L264.268,272.046L226.289,250.23L226.289,226.27Z" style="fill:url(#_Linear7);fill-rule:nonzero;"/>
    <path d="M256.422,270.902L265.355,276.05L265.355,281.688L256.422,276.561L256.422,270.902Z" style="fill:white;fill-rule:nonzero;"/>
    <path d="M238.781,261.792L254.541,271.209L254.541,273.333L238.781,263.937L238.781,261.792Z" style="fill:rgb(160,48,254);fill-rule:nonzero;"/>
    <path d="M228.07,254.377L237.023,259.504L237.023,265.142L228.07,260.015L228.07,254.377Z" style="fill:white;fill-rule:nonzero;"/>
    <path d="M281.135,286.079C281.054,285.487 280.992,284.874 280.992,284.2C280.992,277.541 285.714,269.37 291.479,266.041C294.729,264.161 297.652,264.243 299.594,265.898L299.696,228.23L267.031,247.044L267.031,287.141L279.316,280.053L279.316,287.141L281.115,286.079L281.135,286.079Z" style="fill:rgb(160,48,254);fill-rule:nonzero;"/>
    <path d="M291.495,267.654C286.487,270.534 282.398,277.622 282.398,283.382C282.398,289.163 286.487,291.614 291.495,288.836C296.503,286.058 300.591,278.991 300.591,273.108C300.591,267.225 296.503,264.774 291.495,267.654Z" style="fill:rgb(160,48,254);fill-rule:nonzero;"/>
    <path d="M291.498,272.454C288.759,274.027 286.531,277.908 286.531,281.054C286.531,284.2 288.759,285.548 291.498,284.037C294.237,282.525 296.466,278.644 296.466,275.437C296.466,272.23 294.237,270.882 291.498,272.454Z" style="fill:white;fill-rule:nonzero;"/>
    <path d="M226.289,223.532L258.954,204.719L299.713,228.23L267.028,247.043L226.289,223.532Z" style="fill:rgb(160,48,254);fill-rule:nonzero;"/>
    <path d="M269.867,249.576L296.89,234.338L296.89,249.883L283.399,257.686L283.379,268.696L269.969,276.438L269.867,249.576Z" style="fill:url(#_Linear8);fill-rule:nonzero;"/>
    <path d="M363.672,228.577L363.754,228.904C365.184,230.191 366.145,232.315 366.145,235.216C366.145,235.665 366.125,236.135 366.084,236.605L374.281,231.825L374.281,222.429L363.672,228.577Z" style="fill:rgb(160,48,254);fill-rule:nonzero;"/>
    <path d="M347.094,247.554C347.012,247.044 346.971,246.492 346.971,245.9C346.971,242.918 347.993,239.608 349.669,236.646L299.609,265.714L299.609,266C301.04,267.287 302.001,269.411 302.001,272.312C302.001,272.761 301.981,273.231 301.94,273.701L347.094,247.534L347.094,247.554Z" style="fill:rgb(160,48,254);fill-rule:nonzero;"/>
    <path d="M226.289,261.138L224,262.465L267.028,287.121L269.358,285.793L226.289,261.138Z" style="fill:rgb(241,242,242);fill-rule:nonzero;"/>
    <path d="M279.333,280.033L277.371,278.889L265.352,285.875L267.314,286.998L279.333,280.033Z" style="fill:rgb(241,242,242);fill-rule:nonzero;"/>
    <path d="M252.679,241.426L249.143,239.384L233.914,254.602L237.45,256.644L252.679,241.426Z" style="fill:rgb(181,205,240);fill-rule:nonzero;"/>
    <path d="M235.181,231.376L226.289,240.282L226.289,250.23L230.704,252.763L245.933,237.545L235.181,231.376Z" style="fill:rgb(181,205,240);fill-rule:nonzero;"/>
    <path d="M282.91,242.223L280.436,243.612L269.93,264.978L269.93,268.573L282.91,242.223Z" style="fill:rgb(181,205,240);fill-rule:nonzero;"/>
    <path d="M269.867,250.761L269.908,261.689L278.187,244.878L270.664,249.127L269.867,250.761Z" style="fill:rgb(181,205,240);fill-rule:nonzero;"/>
    <path d="M355.475,170.606L345.868,164.764L307.582,187.131L298.956,182.147C298.527,181.902 298.016,182.208 298.016,182.698L298.016,199.305C298.016,199.673 298.322,199.959 298.69,199.939L324.65,198.325C325.263,198.284 325.468,197.467 324.916,197.161L317.148,192.687L355.475,170.647L355.475,170.606Z" style="fill:rgb(255,195,28);fill-rule:nonzero;"/>
    <path d="M315.797,64.115C314.62,63.433 312.68,63.433 311.503,64.115L272.601,85.451C272.012,85.785 270.821,85.892 270.821,85.892L270.821,87.683C270.795,88.499 271.223,89.261 271.945,89.675L311.503,112.535C312.68,113.217 314.62,113.217 315.797,112.535L355.314,89.608C355.93,89.248 356.304,88.592 356.304,87.884L356.304,86.627C356.304,86.347 356.09,86.119 355.823,86.093C355.435,86.052 354.913,85.959 354.659,85.812L315.797,64.115Z" style="fill:url(#_Linear9);fill-rule:nonzero;"/>
    <path d="M315.799,61.923C314.622,61.241 312.682,61.241 311.505,61.923L271.68,84.903C270.503,85.585 270.503,86.694 271.68,87.376L311.505,110.356C312.682,111.038 314.622,111.038 315.799,110.356L355.424,87.389C356.601,86.708 356.601,85.585 355.424,84.903L315.799,61.936L315.799,61.923Z" style="fill:rgb(247,247,247);fill-rule:nonzero;"/>
    <path d="M319.971,84.969L317.991,83.82C316.346,84.702 313.737,84.688 312.132,83.766C310.527,82.83 310.5,81.333 312.052,80.37L310.741,79.608C308.574,78.352 305.952,78.125 303.61,78.994L300.346,80.437C299.423,80.852 299.37,82.148 300.253,82.63L302.38,83.793L303.731,83.846L301.671,85.477C299.022,87.576 296.106,89.314 292.989,90.611L291.129,91.386C290.407,91.694 290.34,92.696 291.022,93.084L303.156,100.089C303.503,100.289 303.932,100.249 304.226,100.009L306.152,98.458C308.507,96.56 311.115,94.996 313.925,93.846L318.098,92.135L317.496,93.766L321.443,95.798C322.098,96.132 322.901,95.824 323.155,95.129L323.623,93.873C324.587,90.424 323.088,86.774 319.998,84.969L319.971,84.969Z" style="fill:url(#_Linear10);fill-rule:nonzero;"/>
    <path d="M313.098,64.769L326.998,72.777L324.215,74.381L310.289,66.387L313.098,64.769Z" style="fill:rgb(212,217,236);fill-rule:nonzero;"/>
    <path d="M308.364,67.858L341.527,86.828L338.745,88.432L305.555,69.489L308.364,67.858Z" style="fill:rgb(212,217,236);fill-rule:nonzero;"/>
    <path d="M369.399,94.648C368.221,93.966 366.282,93.966 365.104,94.648L326.202,115.984C325.614,116.318 324.423,116.425 324.423,116.425L324.423,118.217C324.396,119.032 324.824,119.794 325.547,120.208L365.104,143.068C366.282,143.75 368.221,143.75 369.399,143.068L408.916,120.142C409.531,119.781 409.906,119.126 409.906,118.417L409.906,117.16C409.906,116.88 409.692,116.652 409.424,116.626C409.036,116.586 408.515,116.492 408.26,116.345L369.399,94.648Z" style="fill:url(#_Linear11);fill-rule:nonzero;"/>
    <path d="M369.401,92.456C368.223,91.774 366.284,91.774 365.106,92.456L325.281,115.436C324.104,116.118 324.104,117.227 325.281,117.909L365.106,140.889C366.284,141.571 368.223,141.571 369.401,140.889L409.025,117.922C410.202,117.241 410.202,116.118 409.025,115.436L369.401,92.469L369.401,92.456Z" style="fill:rgb(247,247,247);fill-rule:nonzero;"/>
    <path d="M366.716,95.29L380.615,103.311L377.832,104.915L363.906,96.921L366.716,95.29Z" style="fill:rgb(212,217,236);fill-rule:nonzero;"/>
    <path d="M361.973,98.392L395.136,117.348L392.354,118.952L359.164,100.009L361.973,98.392Z" style="fill:rgb(212,217,236);fill-rule:nonzero;"/>
    <path d="M374.055,114.794L371.085,117.12L370.764,116.519C370.35,115.743 369.547,115.275 368.664,115.315L365.453,115.422L365.239,113.938C365.092,112.936 364.209,112.134 363.166,112.054L365.708,110.022C366.069,109.741 366.042,109.179 365.654,108.925C365.413,108.778 365.106,108.792 364.878,108.965L361.213,111.893L359.674,112.936L355.634,116.238C354.979,116.773 354.216,117.214 353.4,117.521L345.574,120.449C344.531,120.837 344.464,122.214 345.454,122.842L358.537,131.21C359.327,131.718 360.357,131.411 360.624,130.596L361.427,128.229C362.938,123.751 366.51,120.315 371.179,118.845C371.393,118.778 371.634,118.698 371.875,118.631L375.152,116.037C375.513,115.757 375.487,115.195 375.099,114.941L374.818,114.767C374.577,114.62 374.269,114.634 374.042,114.807L374.055,114.794Z" style="fill:url(#_Linear12);fill-rule:nonzero;"/>
    <path d="M201.118,74.462C201.118,67.029 197.399,61 192.797,61L189.721,61L189.721,61.963C186.644,63.941 184.477,68.794 184.477,74.462C184.477,76.895 184.878,79.168 185.587,81.146L185.574,81.146L189.868,90.25L189.868,96.774L192.945,96.774L200.035,81.146L200.021,81.146C200.717,79.181 201.132,76.895 201.132,74.462L201.118,74.462ZM192.797,81.253C190.456,81.253 188.57,78.192 188.57,74.409C188.57,70.625 190.47,67.564 192.797,67.564C195.125,67.564 197.025,70.625 197.025,74.409C197.025,78.192 195.125,81.253 192.797,81.253Z" style="fill:url(#_Linear13);fill-rule:nonzero;"/>
    <path d="M198.056,74.462C198.056,67.029 194.337,61 189.735,61C185.133,61 181.414,67.029 181.414,74.462C181.414,76.895 181.815,79.168 182.524,81.146L182.511,81.146L189.882,96.774L196.972,81.146L196.959,81.146C197.654,79.181 198.056,76.895 198.056,74.462ZM189.735,81.253C187.394,81.253 185.508,78.192 185.508,74.409C185.508,70.625 187.407,67.564 189.735,67.564C192.063,67.564 193.962,70.625 193.962,74.409C193.962,78.192 192.063,81.253 189.735,81.253Z" style="fill:url(#_Linear14);fill-rule:nonzero;"/>
    <path d="M91.556,237.225C85.977,234.003 76.84,234.003 71.262,237.225C65.684,240.447 65.684,245.714 71.262,248.936C76.84,252.157 85.977,252.157 91.556,248.936C97.134,245.714 97.134,240.447 91.556,237.225Z" style="fill:rgb(87,107,182);fill-opacity:0.78;fill-rule:nonzero;"/>
    <path d="M81.419,251.195C89.184,251.195 95.479,247.562 95.479,243.08C95.479,238.599 89.184,234.966 81.419,234.966C73.654,234.966 67.359,238.599 67.359,243.08C67.359,247.562 73.654,251.195 81.419,251.195Z" style="fill:rgb(82,103,180);fill-opacity:0.8;fill-rule:nonzero;"/>
    <path d="M91.14,237.452C85.789,234.364 77.026,234.364 71.662,237.452C66.311,240.54 66.311,245.593 71.662,248.681C77.013,251.769 85.775,251.769 91.14,248.681C96.491,245.593 96.491,240.54 91.14,237.452Z" style="fill:rgb(77,98,178);fill-opacity:0.83;fill-rule:nonzero;"/>
    <path d="M90.941,237.573C85.697,234.551 77.122,234.551 71.878,237.573C66.634,240.594 66.634,245.554 71.878,248.575C77.122,251.596 85.697,251.596 90.941,248.575C96.185,245.554 96.185,240.594 90.941,237.573Z" style="fill:rgb(71,94,176);fill-opacity:0.85;fill-rule:nonzero;"/>
    <path d="M90.741,237.692C85.604,234.738 77.216,234.738 72.079,237.692C66.942,240.647 66.942,245.5 72.079,248.454C77.216,251.408 85.604,251.408 90.741,248.454C95.878,245.5 95.878,240.647 90.741,237.692Z" style="fill:rgb(66,89,173);fill-opacity:0.88;fill-rule:nonzero;"/>
    <path d="M81.417,250.526C88.547,250.526 94.327,247.192 94.327,243.08C94.327,238.968 88.547,235.634 81.417,235.634C74.288,235.634 68.508,238.968 68.508,243.08C68.508,247.192 74.288,250.526 81.417,250.526Z" style="fill:rgb(61,84,171);fill-opacity:0.9;fill-rule:nonzero;"/>
    <path d="M90.325,237.933C85.415,235.099 77.389,235.099 72.479,237.933C67.57,240.767 67.57,245.393 72.479,248.227C77.389,251.061 85.415,251.061 90.325,248.227C95.234,245.393 95.234,240.767 90.325,237.933Z" style="fill:rgb(56,80,169);fill-opacity:0.93;fill-rule:nonzero;"/>
    <path d="M90.125,238.04C85.335,235.273 77.483,235.273 72.693,238.04C67.904,240.808 67.904,245.326 72.693,248.093C77.483,250.861 85.335,250.861 90.125,248.093C94.914,245.326 94.914,240.808 90.125,238.04Z" style="fill:rgb(50,75,167);fill-opacity:0.95;fill-rule:nonzero;"/>
    <path d="M89.924,238.161C85.242,235.461 77.577,235.461 72.894,238.161C68.212,240.861 68.212,245.286 72.894,247.987C77.577,250.687 85.242,250.687 89.924,247.987C94.606,245.286 94.606,240.861 89.924,238.161Z" style="fill:rgb(45,71,164);fill-opacity:0.98;fill-rule:nonzero;"/>
    <path d="M89.726,238.281C85.151,235.647 77.673,235.647 73.111,238.281C68.536,240.914 68.536,245.232 73.111,247.866C77.686,250.5 85.164,250.5 89.726,247.866C94.288,245.232 94.301,240.914 89.726,238.281Z" style="fill:rgb(160,48,254);fill-rule:nonzero;"/>
    <path d="M81.578,251.355C91.286,251.355 99.156,246.819 99.156,241.222C99.156,235.626 91.286,231.089 81.578,231.089C71.87,231.089 64,235.626 64,241.222C64,246.819 71.87,251.355 81.578,251.355Z" style="fill:url(#_Linear15);fill-rule:nonzero;"/>
    <path d="M94.006,231.958C87.17,228.014 75.986,228.014 69.15,231.958C62.314,235.901 62.314,242.358 69.15,246.302C75.986,250.246 87.17,250.246 94.006,246.302C100.842,242.358 100.842,235.901 94.006,231.958Z" style="fill:url(#_Linear16);fill-rule:nonzero;"/>
    <path d="M85.819,243.268L85.364,243.268L74.93,242.345L74.555,235.22C74.542,234.337 74.983,233.509 75.906,232.92C77.819,231.704 81.016,231.985 83.05,233.535C84.08,234.324 84.615,235.287 84.642,236.196C85.953,236.303 87.277,236.757 88.321,237.533C90.367,239.083 90.474,241.316 88.561,242.532C87.799,243.014 86.822,243.254 85.806,243.281L85.819,243.268Z" style="fill:white;fill-rule:nonzero;"/>
    <path d="M130.681,259.229C125.102,256.007 115.965,256.007 110.387,259.229C104.809,262.451 104.809,267.718 110.387,270.94C115.965,274.161 125.102,274.161 130.681,270.94C136.259,267.718 136.259,262.451 130.681,259.229Z" style="fill:rgb(87,107,182);fill-opacity:0.78;fill-rule:nonzero;"/>
    <path d="M120.544,273.185C128.309,273.185 134.604,269.552 134.604,265.071C134.604,260.589 128.309,256.956 120.544,256.956C112.779,256.956 106.484,260.589 106.484,265.071C106.484,269.552 112.779,273.185 120.544,273.185Z" style="fill:rgb(82,103,180);fill-opacity:0.8;fill-rule:nonzero;"/>
    <path d="M130.264,259.456C124.913,256.368 116.151,256.368 110.787,259.456C105.436,262.544 105.436,267.597 110.787,270.685C116.138,273.773 124.9,273.773 130.264,270.685C135.616,267.597 135.616,262.544 130.264,259.456Z" style="fill:rgb(77,98,178);fill-opacity:0.83;fill-rule:nonzero;"/>
    <path d="M130.066,259.576C124.822,256.555 116.247,256.555 111.003,259.576C105.759,262.598 105.759,267.557 111.003,270.579C116.247,273.6 124.822,273.6 130.066,270.579C135.31,267.557 135.31,262.598 130.066,259.576Z" style="fill:rgb(71,94,176);fill-opacity:0.85;fill-rule:nonzero;"/>
    <path d="M129.866,259.696C124.729,256.742 116.341,256.742 111.204,259.696C106.067,262.651 106.067,267.503 111.204,270.458C116.341,273.412 124.729,273.412 129.866,270.458C135.003,267.503 135.003,262.651 129.866,259.696Z" style="fill:rgb(66,89,173);fill-opacity:0.88;fill-rule:nonzero;"/>
    <path d="M120.542,272.517C127.672,272.517 133.452,269.184 133.452,265.071C133.452,260.959 127.672,257.625 120.542,257.625C113.413,257.625 107.633,260.959 107.633,265.071C107.633,269.184 113.413,272.517 120.542,272.517Z" style="fill:rgb(61,84,171);fill-opacity:0.9;fill-rule:nonzero;"/>
    <path d="M129.45,259.924C124.54,257.09 116.514,257.09 111.604,259.924C106.694,262.759 106.694,267.384 111.604,270.218C116.514,273.052 124.54,273.052 129.45,270.218C134.359,267.384 134.359,262.759 129.45,259.924Z" style="fill:rgb(56,80,169);fill-opacity:0.93;fill-rule:nonzero;"/>
    <path d="M129.249,260.044C124.46,257.277 116.608,257.277 111.818,260.044C107.029,262.811 107.029,267.33 111.818,270.097C116.608,272.865 124.46,272.865 129.249,270.097C134.039,267.33 134.039,262.811 129.249,260.044Z" style="fill:rgb(50,75,167);fill-opacity:0.95;fill-rule:nonzero;"/>
    <path d="M129.049,260.165C124.367,257.465 116.702,257.465 112.019,260.165C107.337,262.865 107.337,267.29 112.019,269.991C116.702,272.691 124.367,272.691 129.049,269.991C133.731,267.29 133.731,262.865 129.049,260.165Z" style="fill:rgb(45,71,164);fill-opacity:0.98;fill-rule:nonzero;"/>
    <path d="M128.851,260.285C124.276,257.651 116.798,257.651 112.236,260.285C107.661,262.918 107.661,267.236 112.236,269.87C116.811,272.503 124.289,272.503 128.851,269.87C133.413,267.236 133.426,262.918 128.851,260.285Z" style="fill:rgb(160,48,254);fill-rule:nonzero;"/>
    <path d="M120.688,273.359C130.396,273.359 138.266,268.822 138.266,263.226C138.266,257.63 130.396,253.093 120.688,253.093C110.979,253.093 103.109,257.63 103.109,263.226C103.109,268.822 110.979,273.359 120.688,273.359Z" style="fill:rgb(198,155,37);fill-rule:nonzero;"/>
    <path d="M133.115,253.962C126.279,250.018 115.096,250.018 108.26,253.962C101.424,257.905 101.424,264.362 108.26,268.306C115.096,272.25 126.279,272.25 133.115,268.306C139.951,264.362 139.951,257.905 133.115,253.962Z" style="fill:url(#_Linear17);fill-rule:nonzero;"/>
    <path d="M129.394,263.908C129.634,263.828 129.715,263.64 129.581,263.507C129.447,263.36 129.139,263.306 128.899,263.386L128.297,263.587L116.538,256.996L117.421,255.847L114.384,253.881C114.183,253.761 113.876,253.748 113.675,253.855C113.474,253.962 113.461,254.149 113.662,254.283L116.23,255.94L111.508,262.076L112.203,262.464C112.203,262.464 112.297,262.504 112.351,262.517C111.976,262.945 112.11,263.493 112.752,263.854C113.381,264.202 114.304,264.255 114.986,264.001C115.013,264.015 115.026,264.041 115.053,264.055L117.046,265.164C117.046,265.164 117.113,265.191 117.14,265.205C116.779,265.632 116.912,266.18 117.541,266.528C118.183,266.889 119.106,266.929 119.789,266.675C119.815,266.715 119.855,266.742 119.909,266.769L120.471,267.089C120.671,267.21 120.993,267.196 121.18,267.089C121.367,266.983 121.354,266.782 121.14,266.662L120.578,266.341C120.578,266.341 120.471,266.287 120.404,266.274C120.778,265.846 120.645,265.298 120.016,264.937C119.387,264.59 118.464,264.536 117.782,264.79C117.755,264.777 117.742,264.75 117.715,264.737L115.722,263.627C115.722,263.627 115.668,263.6 115.628,263.587C115.989,263.159 115.856,262.611 115.227,262.263C114.598,261.903 113.662,261.862 112.979,262.116C112.953,262.09 112.926,262.05 112.872,262.023L112.712,261.929L113.581,260.806L122.919,266.033L124.992,265.352C124.992,265.352 125.099,265.325 125.153,265.298L129.394,263.908ZM119.32,265.365C119.668,265.552 119.695,265.873 119.374,266.073C119.066,266.274 118.531,266.274 118.183,266.073C117.835,265.886 117.809,265.565 118.13,265.365C118.437,265.164 118.973,265.164 119.32,265.365ZM114.545,262.691C114.892,262.878 114.919,263.199 114.598,263.4C114.277,263.6 113.755,263.6 113.407,263.4C113.06,263.213 113.033,262.892 113.354,262.691C113.675,262.491 114.197,262.491 114.545,262.691ZM114.892,259.109L115.28,258.614L125.675,264.443L124.885,264.697L114.932,259.122C114.932,259.122 114.906,259.122 114.892,259.109ZM127.374,263.881L126.584,264.135L115.708,258.039L116.083,257.544L127.374,263.868L127.374,263.881ZM114.023,260.245L114.464,259.67L123.976,265.004L123.053,265.311L114.023,260.258L114.023,260.245Z" style="fill:white;fill-rule:nonzero;"/>
    <defs>
        <linearGradient id="_Linear1" x1="0" y1="0" x2="1" y2="0" gradientUnits="userSpaceOnUse" gradientTransform="matrix(73.267,167.437,-167.437,73.267,144.882,89.9719)"><stop offset="0" style="stop-color:rgb(96,6,140);stop-opacity:1"/><stop offset="0.88" style="stop-color:rgb(200,19,224);stop-opacity:1"/><stop offset="1" style="stop-color:rgb(96,6,140);stop-opacity:1"/></linearGradient>
        <linearGradient id="_Linear2" x1="0" y1="0" x2="1" y2="0" gradientUnits="userSpaceOnUse" gradientTransform="matrix(31.1217,74.005,-74.005,31.1217,47.2978,112.463)"><stop offset="0" style="stop-color:rgb(96,6,140);stop-opacity:1"/><stop offset="0.88" style="stop-color:rgb(200,19,224);stop-opacity:1"/><stop offset="1" style="stop-color:rgb(96,6,140);stop-opacity:1"/></linearGradient>
        <linearGradient id="_Linear3" x1="0" y1="0" x2="1" y2="0" gradientUnits="userSpaceOnUse" gradientTransform="matrix(5.3575,16.076,-16.076,5.3575,33.4316,144.161)"><stop offset="0" style="stop-color:rgb(70,194,170);stop-opacity:1"/><stop offset="1" style="stop-color:rgb(91,240,169);stop-opacity:1"/></linearGradient>
        <linearGradient id="_Linear4" x1="0" y1="0" x2="1" y2="0" gradientUnits="userSpaceOnUse" gradientTransform="matrix(12.976,0,0,12.6032,182,126.807)"><stop offset="0" style="stop-color:white;stop-opacity:1"/><stop offset="1" style="stop-color:rgb(129,50,180);stop-opacity:1"/></linearGradient>
        <linearGradient id="_Linear5" x1="0" y1="0" x2="1" y2="0" gradientUnits="userSpaceOnUse" gradientTransform="matrix(16.1335,0,0,8.00825,194.977,136.367)"><stop offset="0" style="stop-color:white;stop-opacity:1"/><stop offset="1" style="stop-color:rgb(129,50,180);stop-opacity:1"/></linearGradient>
        <linearGradient id="_Linear6" x1="0" y1="0" x2="1" y2="0" gradientUnits="userSpaceOnUse" gradientTransform="matrix(7.863,-7.1082,7.1082,7.863,131.977,30.6905)"><stop offset="0" style="stop-color:rgb(213,71,217);stop-opacity:1"/><stop offset="1" style="stop-color:rgb(129,50,180);stop-opacity:1"/></linearGradient>
        <linearGradient id="_Linear7" x1="0" y1="0" x2="1" y2="0" gradientUnits="userSpaceOnUse" gradientTransform="matrix(23.122,-10,10,23.122,235.668,267.228)"><stop offset="0" style="stop-color:rgb(146,213,247);stop-opacity:1"/><stop offset="1" style="stop-color:rgb(89,194,247);stop-opacity:1"/></linearGradient>
        <linearGradient id="_Linear8" x1="0" y1="0" x2="1" y2="0" gradientUnits="userSpaceOnUse" gradientTransform="matrix(17.562,-5.877,5.877,17.562,276.541,272.007)"><stop offset="0" style="stop-color:rgb(146,213,247);stop-opacity:1"/><stop offset="1" style="stop-color:rgb(89,194,247);stop-opacity:1"/></linearGradient>
        <linearGradient id="_Linear9" x1="0" y1="0" x2="1" y2="0" gradientUnits="userSpaceOnUse" gradientTransform="matrix(85.496,0,0,85.496,270.808,88.325)"><stop offset="0" style="stop-color:rgb(96,6,140);stop-opacity:1"/><stop offset="0.28" style="stop-color:rgb(129,50,180);stop-opacity:1"/><stop offset="0.74" style="stop-color:rgb(172,65,207);stop-opacity:1"/><stop offset="1" style="stop-color:rgb(213,71,217);stop-opacity:1"/></linearGradient>
        <linearGradient id="_Linear10" x1="0" y1="0" x2="1" y2="0" gradientUnits="userSpaceOnUse" gradientTransform="matrix(14.704,-11.7623,11.7623,14.704,298.787,97.9288)"><stop offset="0" style="stop-color:rgb(213,71,217);stop-opacity:1"/><stop offset="1" style="stop-color:rgb(129,50,180);stop-opacity:1"/></linearGradient>
        <linearGradient id="_Linear11" x1="0" y1="0" x2="1" y2="0" gradientUnits="userSpaceOnUse" gradientTransform="matrix(85.496,0,0,85.496,324.423,118.858)"><stop offset="0" style="stop-color:rgb(96,6,140);stop-opacity:1"/><stop offset="0.28" style="stop-color:rgb(129,50,180);stop-opacity:1"/><stop offset="0.74" style="stop-color:rgb(172,65,207);stop-opacity:1"/><stop offset="1" style="stop-color:rgb(213,71,217);stop-opacity:1"/></linearGradient>
        <linearGradient id="_Linear12" x1="0" y1="0" x2="1" y2="0" gradientUnits="userSpaceOnUse" gradientTransform="matrix(14.784,-10.439,10.439,14.784,352.321,129.076)"><stop offset="0" style="stop-color:rgb(213,71,217);stop-opacity:1"/><stop offset="1" style="stop-color:rgb(129,50,180);stop-opacity:1"/></linearGradient>
        <linearGradient id="_Linear13" x1="0" y1="0" x2="1" y2="0" gradientUnits="userSpaceOnUse" gradientTransform="matrix(11.366,-2.7589,2.7589,11.366,188.59,93.009)"><stop offset="0" style="stop-color:rgb(172,65,207);stop-opacity:1"/><stop offset="1" style="stop-color:rgb(96,6,140);stop-opacity:1"/></linearGradient>
        <linearGradient id="_Linear14" x1="0" y1="0" x2="1" y2="0" gradientUnits="userSpaceOnUse" gradientTransform="matrix(11.358,-2.7547,2.7547,11.358,185.524,93.009)"><stop offset="0" style="stop-color:rgb(213,71,217);stop-opacity:1"/><stop offset="1" style="stop-color:rgb(129,50,180);stop-opacity:1"/></linearGradient>
        <linearGradient id="_Linear15" x1="0" y1="0" x2="1" y2="0" gradientUnits="userSpaceOnUse" gradientTransform="matrix(7.0137,21.072,-21.072,7.0137,72.787,232.445)"><stop offset="0" style="stop-color:rgb(30,75,67);stop-opacity:1"/><stop offset="1" style="stop-color:rgb(91,240,169);stop-opacity:1"/></linearGradient>
        <linearGradient id="_Linear16" x1="0" y1="0" x2="1" y2="0" gradientUnits="userSpaceOnUse" gradientTransform="matrix(7.0171,21.061,-21.061,7.0171,72.7987,230.356)"><stop offset="0" style="stop-color:rgb(70,194,170);stop-opacity:1"/><stop offset="1" style="stop-color:rgb(91,240,169);stop-opacity:1"/></linearGradient>
        <linearGradient id="_Linear17" x1="0" y1="0" x2="1" y2="0" gradientUnits="userSpaceOnUse" gradientTransform="matrix(20.409,31.713,-31.713,20.409,119.633,259.567)"><stop offset="0" style="stop-color:rgb(255,195,27);stop-opacity:1"/><stop offset="1" style="stop-color:rgb(255,235,179);stop-opacity:1"/></linearGradient>
    </defs>
</svg>
